<svg width="142" height="124" viewBox="0 0 142 124" fill="none" xmlns="http://www.w3.org/2000/svg">
<g clip-path="url(#clip0_665_9074)">
<path d="M142 29.467H141.317V10.8025C141.317 7.93748 140.174 5.18983 138.14 3.16397C136.106 1.13811 133.347 1.40913e-09 130.47 1.40912e-09H90.7647C89.3403 -2.29109e-05 87.9299 0.279369 86.6139 0.822223C85.2979 1.36508 84.1022 2.16076 83.095 3.16385C82.0878 4.16693 81.2888 5.35778 80.7437 6.66839C80.1986 7.97899 79.918 9.3837 79.918 10.8023V113.198C79.918 116.063 81.0607 118.81 83.0949 120.836C85.129 122.862 87.8879 124 90.7645 124H130.47C133.347 124 136.105 122.862 138.14 120.836C140.174 118.81 141.316 116.063 141.316 113.198V42.7528H142L142 29.467Z" fill="#172A42"/>
<path d="M139.106 10.0794V113.921C139.105 116.093 138.239 118.177 136.697 119.713C135.155 121.249 133.063 122.112 130.882 122.113H90.3618C88.1799 122.113 86.0872 121.25 84.544 119.714C83.0008 118.178 82.1335 116.094 82.1328 113.921V10.0794C82.1335 7.90639 83.0007 5.82266 84.5439 4.28646C86.087 2.75027 88.1796 1.88742 90.3614 1.8877H95.2768C95.0354 2.47881 94.9435 3.11991 95.0092 3.75466C95.0749 4.38941 95.2962 4.99837 95.6536 5.52802C96.0109 6.05767 96.4934 6.49178 97.0587 6.79221C97.624 7.09264 98.2547 7.25018 98.8954 7.25099H121.997C122.637 7.25018 123.268 7.09264 123.833 6.79221C124.399 6.49178 124.881 6.05767 125.238 5.52802C125.596 4.99837 125.817 4.38941 125.883 3.75466C125.949 3.11991 125.857 2.47881 125.615 1.8877H130.88C133.062 1.88807 135.153 2.75102 136.696 4.28683C138.238 5.82265 139.105 7.90561 139.106 10.0778V10.0794Z" fill="white"/>
<path d="M111.055 51.6217C106.441 51.6234 102.016 49.8 98.7526 46.5524C95.4891 43.3049 93.6545 38.8992 93.6523 34.3046V34.2892C93.6523 34.253 93.6523 34.2148 93.6545 34.1785C93.707 24.6871 101.514 16.958 111.055 16.958C115.67 16.9578 120.097 18.7835 123.36 22.0336C126.624 25.2838 128.458 29.692 128.458 34.2886C128.458 38.8853 126.625 43.2937 123.362 46.5442C120.098 49.7947 115.672 51.6209 111.057 51.6212H111.055V51.6217ZM111.055 17.3227C106.557 17.3327 102.245 19.1099 99.0555 22.2683C95.866 25.4266 94.0568 29.7109 94.0209 34.1901C94.019 34.2289 94.019 34.2599 94.019 34.2894C94.0186 37.6455 95.0175 40.9264 96.8893 43.7172C98.7611 46.5079 101.422 48.6832 104.535 49.9679C107.648 51.2526 111.074 51.5891 114.379 50.9347C117.684 50.2804 120.72 48.6646 123.103 46.2918C125.487 43.9189 127.11 40.8956 127.767 37.604C128.425 34.3125 128.088 30.9006 126.799 27.7997C125.51 24.6989 123.326 22.0485 120.525 20.1836C117.723 18.3187 114.429 17.3231 111.059 17.3227H111.055Z" fill="#E6E6E6"/>
<path d="M129.049 69.8445H93.0417C92.865 69.8443 92.6955 69.7743 92.5705 69.6498C92.4455 69.5253 92.3752 69.3565 92.375 69.1805V60.2851C92.3752 60.1091 92.4456 59.9403 92.5705 59.8158C92.6955 59.6914 92.865 59.6213 93.0417 59.6211H129.049C129.225 59.6213 129.395 59.6914 129.52 59.8158C129.645 59.9403 129.715 60.1091 129.715 60.2851V69.1806C129.715 69.3567 129.645 69.5254 129.52 69.6499C129.395 69.7744 129.225 69.8444 129.049 69.8447V69.8445ZM93.0417 59.8866C92.9357 59.8867 92.8339 59.9287 92.7589 60.0035C92.6839 60.0782 92.6417 60.1795 92.6416 60.2851V69.1806C92.6417 69.2863 92.6839 69.3876 92.7589 69.4623C92.8339 69.537 92.9357 69.579 93.0417 69.5791H129.049C129.155 69.579 129.257 69.537 129.332 69.4623C129.407 69.3876 129.449 69.2863 129.449 69.1806V60.2851C129.449 60.1795 129.407 60.0782 129.332 60.0035C129.257 59.9287 129.155 59.8867 129.049 59.8866H93.0417Z" fill="#E6E6E6"/>
<path d="M104.178 62.873C104.054 62.873 103.935 62.922 103.848 63.0092C103.76 63.0964 103.711 63.2146 103.711 63.3379C103.711 63.4612 103.76 63.5795 103.848 63.6666C103.935 63.7538 104.054 63.8028 104.178 63.8028H126.182C126.243 63.8051 126.304 63.7954 126.362 63.7743C126.419 63.7531 126.472 63.7208 126.517 63.6793C126.562 63.6378 126.598 63.5879 126.624 63.5324C126.649 63.477 126.664 63.417 126.666 63.356C126.669 63.295 126.659 63.2341 126.638 63.1768C126.616 63.1196 126.584 63.067 126.542 63.0222C126.501 62.9774 126.45 62.9412 126.395 62.9157C126.339 62.8902 126.279 62.8759 126.218 62.8736C126.211 62.8733 126.204 62.8732 126.197 62.8732H104.178V62.873Z" fill="#E6E6E6"/>
<path d="M104.178 65.6621C104.054 65.6621 103.935 65.7111 103.848 65.7983C103.76 65.8854 103.711 66.0037 103.711 66.127C103.711 66.2503 103.76 66.3685 103.848 66.4557C103.935 66.5429 104.054 66.5919 104.178 66.5919H126.182C126.243 66.5942 126.304 66.5845 126.362 66.5633C126.419 66.5421 126.472 66.5099 126.517 66.4684C126.562 66.4269 126.598 66.377 126.624 66.3215C126.649 66.266 126.664 66.2061 126.666 66.145C126.669 66.084 126.659 66.0232 126.638 65.9659C126.616 65.9086 126.584 65.8561 126.542 65.8113C126.501 65.7665 126.45 65.7303 126.395 65.7048C126.339 65.6793 126.279 65.6649 126.218 65.6626C126.211 65.6624 126.204 65.6622 126.197 65.6623H104.178V65.6621Z" fill="#E6E6E6"/>
<path d="M129.049 84.7195H93.0417C92.865 84.7193 92.6955 84.6493 92.5705 84.5248C92.4455 84.4003 92.3752 84.2315 92.375 84.0554V75.1601C92.3752 74.9841 92.4456 74.8153 92.5705 74.6908C92.6955 74.5664 92.865 74.4963 93.0417 74.4961H129.049C129.225 74.4963 129.395 74.5664 129.52 74.6908C129.645 74.8153 129.715 74.9841 129.715 75.1601V84.0556C129.715 84.2316 129.645 84.4004 129.52 84.5248C129.395 84.6493 129.225 84.7193 129.049 84.7195ZM93.0417 74.7616C92.9357 74.7617 92.8339 74.8038 92.7589 74.8785C92.6839 74.9532 92.6417 75.0545 92.6416 75.1601V84.0556C92.6417 84.1613 92.6839 84.2626 92.7589 84.3373C92.8339 84.412 92.9357 84.454 93.0417 84.4541H129.049C129.155 84.454 129.257 84.412 129.332 84.3373C129.407 84.2626 129.449 84.1613 129.449 84.0556V75.1601C129.449 75.0545 129.407 74.9532 129.332 74.8785C129.257 74.8038 129.155 74.7617 129.049 74.7616H93.0417Z" fill="#E6E6E6"/>
<path d="M104.178 77.748C104.054 77.748 103.935 77.797 103.848 77.8842C103.76 77.9714 103.711 78.0896 103.711 78.2129C103.711 78.3362 103.76 78.4545 103.848 78.5416C103.935 78.6288 104.054 78.6778 104.178 78.6778H126.182C126.304 78.6771 126.421 78.6289 126.508 78.5434C126.594 78.4579 126.644 78.342 126.646 78.2204C126.648 78.0989 126.602 77.9814 126.518 77.8932C126.434 77.8049 126.319 77.7529 126.197 77.7482H104.178V77.748Z" fill="#E6E6E6"/>
<path d="M104.178 80.5381C104.054 80.5381 103.935 80.5871 103.848 80.6742C103.76 80.7614 103.711 80.8797 103.711 81.003C103.711 81.1263 103.76 81.2445 103.848 81.3317C103.935 81.4189 104.054 81.4678 104.178 81.4678H126.182C126.304 81.4672 126.421 81.4189 126.508 81.3334C126.594 81.2479 126.644 81.132 126.646 81.0105C126.648 80.8889 126.602 80.7715 126.518 80.6832C126.434 80.5949 126.319 80.5429 126.197 80.5383H104.178V80.5381Z" fill="#E6E6E6"/>
<path d="M129.049 99.5945H93.0417C92.865 99.5943 92.6955 99.5243 92.5705 99.3998C92.4455 99.2753 92.3752 99.1065 92.375 98.9305V90.0351C92.3752 89.8591 92.4456 89.6903 92.5705 89.5658C92.6955 89.4414 92.865 89.3713 93.0417 89.3711H129.049C129.225 89.3713 129.395 89.4414 129.52 89.5658C129.645 89.6903 129.715 89.8591 129.715 90.0351V98.9306C129.715 99.1067 129.645 99.2754 129.52 99.3999C129.395 99.5244 129.225 99.5944 129.049 99.5947V99.5945ZM93.0417 89.6366C92.9357 89.6367 92.8339 89.6788 92.7589 89.7535C92.6839 89.8282 92.6417 89.9295 92.6416 90.0351V98.9306C92.6417 99.0363 92.6839 99.1376 92.7589 99.2123C92.8339 99.287 92.9357 99.329 93.0417 99.3291H129.049C129.155 99.329 129.257 99.287 129.332 99.2123C129.407 99.1376 129.449 99.0363 129.449 98.9306V90.0351C129.449 89.9295 129.407 89.8282 129.332 89.7535C129.257 89.6788 129.155 89.6367 129.049 89.6366H93.0417Z" fill="#E6E6E6"/>
<path d="M104.178 92.624C104.054 92.624 103.935 92.673 103.848 92.7602C103.76 92.8474 103.711 92.9656 103.711 93.0889C103.711 93.2122 103.76 93.3304 103.848 93.4176C103.935 93.5048 104.054 93.5538 104.178 93.5538H126.182C126.243 93.5561 126.304 93.5464 126.362 93.5252C126.419 93.504 126.472 93.4718 126.517 93.4303C126.562 93.3888 126.598 93.3389 126.624 93.2834C126.649 93.2279 126.664 93.168 126.666 93.107C126.669 93.046 126.659 92.9851 126.638 92.9278C126.616 92.8705 126.584 92.818 126.542 92.7732C126.501 92.7284 126.45 92.6922 126.395 92.6667C126.339 92.6412 126.279 92.6269 126.218 92.6245C126.211 92.6243 126.204 92.6242 126.197 92.6242H104.178V92.624Z" fill="#E6E6E6"/>
<path d="M104.178 95.4131C104.054 95.4131 103.935 95.4621 103.848 95.5492C103.76 95.6364 103.711 95.7547 103.711 95.878C103.711 96.0013 103.76 96.1195 103.848 96.2067C103.935 96.2939 104.054 96.3428 104.178 96.3428H126.182C126.243 96.3452 126.304 96.3355 126.362 96.3143C126.419 96.2931 126.472 96.2608 126.517 96.2193C126.562 96.1779 126.598 96.1279 126.624 96.0725C126.649 96.017 126.664 95.957 126.666 95.896C126.669 95.835 126.659 95.7741 126.638 95.7169C126.616 95.6596 126.584 95.6071 126.542 95.5623C126.501 95.5175 126.45 95.4813 126.395 95.4558C126.339 95.4303 126.279 95.4159 126.218 95.4136C126.211 95.4133 126.204 95.4132 126.197 95.4133H104.178V95.4131Z" fill="#E6E6E6"/>
<path d="M116.551 33.8691H111.476V28.8145H110.63V33.8691H105.555V34.7115H110.63V39.7661H111.476V34.7115H116.551V33.8691Z" fill="#A2D45A"/>
<path d="M38.6151 97.4316C38.6151 97.4316 34.4653 101.958 33.8725 112.389C33.2796 122.819 33.082 124 33.082 124H47.9027L50.6678 116.916L53.8302 123.999H67.8603C67.8603 123.999 69.4411 102.351 67.8603 101.761C66.2794 101.17 38.6151 97.4316 38.6151 97.4316Z" fill="#172A42"/>
<path d="M58.4731 44.196C62.4019 44.196 65.5868 41.024 65.5868 37.1112C65.5868 33.1983 62.4019 30.0264 58.4731 30.0264C54.5443 30.0264 51.3594 33.1983 51.3594 37.1112C51.3594 41.024 54.5443 44.196 58.4731 44.196Z" fill="#FFB8B8"/>
<path d="M89.2003 97.6292L78.332 77.9487L72.0078 67.715L79.5175 64.3691L83.6673 72.4381C83.6673 72.4381 89.2003 80.507 90.5834 87.1985C91.9665 93.8901 93.3499 97.0388 93.3499 97.0388L89.2003 97.6292Z" fill="#FFB8B8"/>
<path d="M29.3263 91.9205L45.53 77.7506L44.7405 66.3359H40.1955L38.8115 72.2401L25.7695 89.362L29.3263 91.9205Z" fill="#FFB8B8"/>
<path d="M50.2716 47.6399C50.2716 47.6399 56.1403 50.0901 60.5171 47.0938C60.5171 47.0938 71.2178 48.821 71.8106 49.4111C72.4034 50.0012 71.2178 67.7133 71.2178 67.7133L68.8468 77.7507C68.8468 77.7507 72.2062 93.1013 67.2659 97.0374L68.254 102.351C68.254 102.351 46.3198 103.926 37.625 98.6119L39.2055 93.2978L43.3553 76.5695L40.7864 53.3472C40.7864 53.3472 42.7618 48.0335 50.2716 47.6399Z" fill="#E4E4E4"/>
<path d="M66.7712 50.2973L71.9091 49.5107C71.9091 49.5107 74.478 49.9044 76.8493 54.8245C79.2206 59.7446 81.7895 66.239 81.7895 66.239L72.8973 70.1751L65.5859 58.7606L66.7712 50.2973Z" fill="#E4E4E4"/>
<path d="M41.9736 52.3643L40.7879 53.3483C40.7879 53.3483 39.207 59.0556 39.207 62.9916V68.3053L46.3209 69.0925L41.9736 52.3643Z" fill="#E4E4E4"/>
<path d="M51.3617 39.034C51.3617 39.034 50.3947 37.9939 50.4926 36.692C50.5571 35.9514 50.5096 35.2054 50.3516 34.4788C50.3516 34.4788 50.6543 32.348 51.1012 31.1127C51.5481 29.8775 51.1713 29.4477 53.0923 28.7734C55.0134 28.0991 53.7904 25.6606 59.454 27.6044C59.6694 27.8211 59.9444 27.9693 60.2443 28.0304C60.5442 28.0915 60.8556 28.0628 61.1391 27.9478C62.1848 27.5664 62.8149 28.9971 62.8149 28.9971C62.8149 28.9971 63.4671 28.4641 63.8331 29.0182C64.199 29.5723 65.9691 28.3095 66.6185 32.3403C67.2679 36.3712 65.0394 39.9658 65.0394 39.9658C65.0394 39.9658 64.7267 33.5156 61.0485 33.3985C57.3704 33.2814 53.2108 31.894 52.6948 34.6102C52.1789 37.3264 51.3617 39.034 51.3617 39.034Z" fill="#172A42"/>
<path d="M26.7337 94.9357C28.4269 94.9357 29.7994 93.5687 29.7994 91.8824C29.7994 90.1961 28.4269 88.8291 26.7337 88.8291C25.0405 88.8291 23.668 90.1961 23.668 91.8824C23.668 93.5687 25.0405 94.9357 26.7337 94.9357Z" fill="#FFB8B8"/>
<path d="M4.63357 112.504L55.1247 102.466L50.9052 81.4141L0.414062 91.4513L4.63357 112.504Z" fill="white"/>
<path d="M55.5371 102.742L4.3572 112.917L0 91.1777L51.1799 81.0029L55.5371 102.742ZM4.90868 112.093L54.711 102.193L50.6286 81.8259L0.826523 91.7271L4.90868 112.093Z" fill="#E4E4E4"/>
<path d="M21.0954 105.813L21.0747 105.822C20.9101 105.889 20.7432 105.953 20.5718 106.009C20.5141 106.029 20.4544 106.047 20.3965 106.064C20.3387 106.082 20.2788 106.1 20.2189 106.116C20.1214 106.144 20.0215 106.169 19.9211 106.192C19.8782 106.203 19.8329 106.212 19.7896 106.222L19.7635 106.227C19.7097 106.239 19.6559 106.25 19.6018 106.26L19.4617 106.284C19.4357 106.289 19.41 106.293 19.3846 106.297C18.2711 106.471 17.1325 106.391 16.0544 106.064C14.9764 105.736 13.9868 105.17 13.1603 104.406C12.3337 103.643 11.6917 102.703 11.2824 101.658C10.8731 100.612 10.7072 99.487 10.7973 98.3681C10.8873 97.2492 11.2309 96.1652 11.8022 95.1975C12.3735 94.2299 13.1577 93.4039 14.0957 92.7816C15.0338 92.1593 16.1013 91.7569 17.2179 91.6047C18.3346 91.4525 19.4714 91.5544 20.5429 91.9028C19.5732 92.7752 18.8507 93.8861 18.448 95.1242C18.0453 96.3623 17.9764 97.6841 18.2482 98.957C18.5201 100.23 19.1231 101.409 19.9969 102.377C20.8706 103.345 21.9845 104.067 23.2267 104.471C22.5986 105.036 21.8779 105.49 21.0959 105.814L21.0954 105.813Z" fill="#A2D45A"/>
<path d="M31.7522 102.037C32.0781 102.2 32.4157 102.338 32.7624 102.45C31.792 103.326 30.6061 103.93 29.3253 104.201L29.2316 104.221C28.1134 104.445 26.9586 104.41 25.8561 104.119C24.7536 103.828 23.7327 103.29 22.8721 102.544C22.0114 101.799 21.334 100.867 20.8918 99.8198C20.4496 98.7728 20.2545 97.6388 20.3215 96.5049C20.3884 95.371 20.7157 94.2675 21.2781 93.2793C21.8405 92.2912 22.6231 91.4447 23.5655 90.805C24.508 90.1654 25.5852 89.7496 26.7143 89.5896C27.8435 89.4297 28.9944 89.5298 30.0786 89.8824C29.1747 90.6914 28.4835 91.7085 28.0654 92.845C27.6473 93.9814 27.515 95.2025 27.6801 96.4016C27.8452 97.6007 28.3027 98.7412 29.0125 99.7236C29.7224 100.706 30.663 101.5 31.7522 102.037L31.7522 102.037Z" fill="#A2D45A"/>
<path d="M44.6033 93.3747C44.91 94.8111 44.7822 96.3058 44.236 97.6699C43.6897 99.034 42.7496 100.206 41.5345 101.038C40.3194 101.87 38.8838 102.324 37.4094 102.344C35.935 102.363 34.4879 101.947 33.2511 101.147C32.0144 100.347 31.0435 99.2003 30.4613 97.8511C29.879 96.5019 29.7116 95.011 29.9802 93.567C30.2487 92.123 30.9412 90.7908 31.97 89.7387C32.9988 88.6867 34.3177 87.9621 35.76 87.6566C36.7176 87.4537 37.706 87.4407 38.6687 87.6183C39.6314 87.7959 40.5496 88.1606 41.3707 88.6916C42.1919 89.2225 42.9 89.9094 43.4547 90.7129C44.0093 91.5164 44.3996 92.4209 44.6033 93.3747Z" fill="#A2D45A"/>
<path d="M41.4819 100.001C41.5524 100.329 41.5892 100.664 41.5919 101C40.7709 101.573 39.8427 101.975 38.8626 102.182C37.8824 102.39 36.8703 102.399 35.8866 102.209C35.7517 101.901 35.6485 101.58 35.5785 101.251C35.2137 99.5427 35.7792 97.9137 36.8789 97.1768C36.3556 97.0773 35.8829 96.8005 35.5412 96.3935C35.1994 95.9864 35.0096 95.474 35.004 94.9434C34.9984 94.4128 35.1774 93.8966 35.5105 93.4825C35.8436 93.0684 36.3103 92.7818 36.8315 92.6714C37.3526 92.561 37.896 92.6336 38.3695 92.8769C38.843 93.1202 39.2174 93.5192 39.4291 94.0061C39.6408 94.4931 39.6768 95.038 39.531 95.5484C39.3851 96.0587 39.0665 96.5031 38.6291 96.8061C39.9353 97.0334 41.1171 98.2923 41.4819 100.001Z" fill="white"/>
<path d="M31.7544 102.037L31.7592 102.059C31.8219 102.472 31.8503 102.889 31.8441 103.307C31.0718 103.846 30.2086 104.002 29.2337 104.221L29.14 104.241C28.16 104.45 27.1476 104.459 26.164 104.268C26.1507 104.239 26.139 104.211 26.1292 104.181C26.0104 103.9 25.9189 103.608 25.8561 103.31C25.4913 101.601 26.0568 99.9724 27.1565 99.2354C26.6331 99.1361 26.1604 98.8594 25.8186 98.4523C25.4768 98.0453 25.287 97.5329 25.2814 97.0023C25.2758 96.4717 25.4548 95.9555 25.7879 95.5414C26.1211 95.1273 26.5879 94.8408 27.1091 94.7305C27.2857 94.6926 27.4662 94.6762 27.6468 94.6817C27.5025 96.1779 27.8181 97.6824 28.5516 98.996C29.2852 100.31 30.4022 101.37 31.7546 102.037L31.7544 102.037Z" fill="white"/>
<path d="M22.4022 104.147C22.4614 104.443 22.4923 104.744 22.4944 105.046C21.9043 105.458 21.2571 105.783 20.5732 106.009C20.5155 106.029 20.4558 106.047 20.398 106.064C20.3401 106.082 20.2802 106.1 20.2203 106.116C20.1228 106.144 20.0229 106.169 19.9226 106.192C19.902 106.198 19.8796 106.203 19.8587 106.207L19.765 106.227C19.7112 106.239 19.6574 106.25 19.6032 106.26L19.4632 106.284C19.4371 106.29 19.4114 106.293 19.386 106.297C18.5246 106.435 17.6453 106.421 16.789 106.254C16.7867 106.25 16.7853 106.246 16.7847 106.242C16.7728 106.218 16.7626 106.193 16.7542 106.167C16.6354 105.886 16.5439 105.595 16.4811 105.296C16.1163 103.588 16.6818 101.959 17.7815 101.222C17.2581 101.123 16.7854 100.846 16.4436 100.439C16.1018 100.032 15.912 99.5194 15.9064 98.9888C15.9008 98.4582 16.0798 97.942 16.4129 97.5279C16.7461 97.1137 17.2129 96.8272 17.7341 96.717C17.8591 96.6903 17.9862 96.6742 18.114 96.6689C17.9586 98.2048 18.2882 99.7508 19.0569 101.091C19.8256 102.432 20.9951 103.5 22.4023 104.147L22.4022 104.147Z" fill="white"/>
<path d="M38.6151 97.4316C38.6151 97.4316 34.4653 101.958 33.8725 112.389C33.2796 122.819 33.082 124 33.082 124H47.9027L50.6678 116.916L53.8302 123.999H67.8603C67.8603 123.999 69.4411 102.351 67.8603 101.761C66.2794 101.17 38.6151 97.4316 38.6151 97.4316Z" fill="#36393D"/>
<path d="M58.4731 44.196C62.4019 44.196 65.5868 41.024 65.5868 37.1112C65.5868 33.1983 62.4019 30.0264 58.4731 30.0264C54.5443 30.0264 51.3594 33.1983 51.3594 37.1112C51.3594 41.024 54.5443 44.196 58.4731 44.196Z" fill="#FFB8B8"/>
<path d="M89.2003 97.6292L78.332 77.9487L72.0078 67.715L79.5175 64.3691L83.6673 72.4381C83.6673 72.4381 89.2003 80.507 90.5834 87.1985C91.9665 93.8901 93.3499 97.0388 93.3499 97.0388L89.2003 97.6292Z" fill="#FFB8B8"/>
<path d="M29.3263 91.9205L45.53 77.7506L44.7405 66.3359H40.1955L38.8115 72.2401L25.7695 89.362L29.3263 91.9205Z" fill="#FFB8B8"/>
<path d="M50.2716 47.6399C50.2716 47.6399 56.1403 50.0901 60.5171 47.0938C60.5171 47.0938 71.2178 48.821 71.8106 49.4111C72.4034 50.0012 71.2178 67.7133 71.2178 67.7133L68.8468 77.7507C68.8468 77.7507 72.2062 93.1013 67.2659 97.0374L68.254 102.351C68.254 102.351 46.3198 103.926 37.625 98.6119L39.2055 93.2978L43.3553 76.5695L40.7864 53.3472C40.7864 53.3472 42.7618 48.0335 50.2716 47.6399Z" fill="#E4E4E4"/>
<path d="M51.3617 39.034C51.3617 39.034 50.3947 37.9939 50.4926 36.692C50.5571 35.9514 50.5096 35.2054 50.3516 34.4788C50.3516 34.4788 50.6543 32.348 51.1012 31.1127C51.5481 29.8775 51.1713 29.4477 53.0923 28.7734C55.0134 28.0991 53.7904 25.6606 59.454 27.6044C59.6694 27.8211 59.9444 27.9693 60.2443 28.0304C60.5442 28.0915 60.8556 28.0628 61.1391 27.9478C62.1848 27.5664 62.8149 28.9971 62.8149 28.9971C62.8149 28.9971 63.4671 28.4641 63.8331 29.0182C64.199 29.5723 65.9691 28.3095 66.6185 32.3403C67.2679 36.3712 65.0394 39.9658 65.0394 39.9658C65.0394 39.9658 64.7267 33.5156 61.0485 33.3985C57.3704 33.2814 53.2108 31.894 52.6948 34.6102C52.1789 37.3264 51.3617 39.034 51.3617 39.034Z" fill="#36393D"/>
<path d="M4.63357 112.504L55.1247 102.466L50.9052 81.4141L0.414062 91.4513L4.63357 112.504Z" fill="white"/>
<path d="M21.0954 105.813L21.0747 105.822C20.9101 105.889 20.7432 105.953 20.5718 106.009C20.5141 106.029 20.4544 106.047 20.3965 106.064C20.3387 106.082 20.2788 106.1 20.2189 106.116C20.1214 106.144 20.0215 106.169 19.9211 106.192C19.8782 106.203 19.8329 106.212 19.7896 106.222L19.7635 106.227C19.7097 106.239 19.6559 106.25 19.6018 106.26L19.4617 106.284C19.4357 106.289 19.41 106.293 19.3846 106.297C18.2711 106.471 17.1325 106.391 16.0544 106.064C14.9764 105.736 13.9868 105.17 13.1603 104.406C12.3337 103.643 11.6917 102.703 11.2824 101.658C10.8731 100.612 10.7072 99.487 10.7973 98.3681C10.8873 97.2492 11.2309 96.1652 11.8022 95.1975C12.3735 94.2299 13.1577 93.4039 14.0957 92.7816C15.0338 92.1593 16.1013 91.7569 17.2179 91.6047C18.3346 91.4525 19.4714 91.5544 20.5429 91.9028C19.5732 92.7752 18.8507 93.8861 18.448 95.1242C18.0453 96.3623 17.9764 97.6841 18.2482 98.957C18.5201 100.23 19.1231 101.409 19.9969 102.377C20.8706 103.345 21.9845 104.067 23.2267 104.471C22.5986 105.036 21.8779 105.49 21.0959 105.814L21.0954 105.813Z" fill="#A2D45A"/>
<path d="M31.7522 102.037C32.0781 102.2 32.4157 102.338 32.7624 102.45C31.792 103.326 30.6061 103.93 29.3253 104.201L29.2316 104.221C28.1134 104.445 26.9586 104.41 25.8561 104.119C24.7536 103.828 23.7327 103.29 22.8721 102.544C22.0114 101.799 21.334 100.867 20.8918 99.8198C20.4496 98.7728 20.2545 97.6388 20.3215 96.5049C20.3884 95.371 20.7157 94.2675 21.2781 93.2793C21.8405 92.2912 22.6231 91.4447 23.5655 90.805C24.508 90.1654 25.5852 89.7496 26.7143 89.5896C27.8435 89.4297 28.9944 89.5298 30.0786 89.8824C29.1747 90.6914 28.4835 91.7085 28.0654 92.845C27.6473 93.9814 27.515 95.2025 27.6801 96.4016C27.8452 97.6007 28.3027 98.7412 29.0125 99.7236C29.7224 100.706 30.663 101.5 31.7522 102.037L31.7522 102.037Z" fill="#A2D45A"/>
<path d="M44.6033 93.3747C44.91 94.8111 44.7822 96.3058 44.236 97.6699C43.6897 99.034 42.7496 100.206 41.5345 101.038C40.3194 101.87 38.8838 102.324 37.4094 102.344C35.935 102.363 34.4879 101.947 33.2511 101.147C32.0144 100.347 31.0435 99.2003 30.4613 97.8511C29.879 96.5019 29.7116 95.011 29.9802 93.567C30.2487 92.123 30.9412 90.7908 31.97 89.7387C32.9988 88.6867 34.3177 87.9621 35.76 87.6566C36.7176 87.4537 37.706 87.4407 38.6687 87.6183C39.6314 87.7959 40.5496 88.1606 41.3707 88.6916C42.1919 89.2225 42.9 89.9094 43.4547 90.7129C44.0093 91.5164 44.3996 92.4209 44.6033 93.3747Z" fill="#A2D45A"/>
<path d="M41.4819 100.001C41.5524 100.329 41.5892 100.664 41.5919 101C40.7709 101.573 39.8427 101.975 38.8626 102.182C37.8824 102.39 36.8703 102.399 35.8866 102.209C35.7517 101.901 35.6485 101.58 35.5785 101.251C35.2137 99.5427 35.7792 97.9137 36.8789 97.1768C36.3556 97.0773 35.8829 96.8005 35.5412 96.3935C35.1994 95.9864 35.0096 95.474 35.004 94.9434C34.9984 94.4128 35.1774 93.8966 35.5105 93.4825C35.8436 93.0684 36.3103 92.7818 36.8315 92.6714C37.3526 92.561 37.896 92.6336 38.3695 92.8769C38.843 93.1202 39.2174 93.5192 39.4291 94.0061C39.6408 94.4931 39.6768 95.038 39.531 95.5484C39.3851 96.0587 39.0665 96.5031 38.6291 96.8061C39.9353 97.0334 41.1171 98.2923 41.4819 100.001Z" fill="white"/>
<path d="M31.7544 102.037L31.7592 102.059C31.8219 102.472 31.8503 102.889 31.8441 103.307C31.0718 103.846 30.2086 104.002 29.2337 104.221L29.14 104.241C28.16 104.45 27.1476 104.459 26.164 104.268C26.1507 104.239 26.139 104.211 26.1292 104.181C26.0104 103.9 25.9189 103.608 25.8561 103.31C25.4913 101.601 26.0568 99.9724 27.1565 99.2354C26.6331 99.1361 26.1604 98.8594 25.8186 98.4523C25.4768 98.0453 25.287 97.5329 25.2814 97.0023C25.2758 96.4717 25.4548 95.9555 25.7879 95.5414C26.1211 95.1273 26.5879 94.8408 27.1091 94.7305C27.2857 94.6926 27.4662 94.6762 27.6468 94.6817C27.5025 96.1779 27.8181 97.6824 28.5516 98.996C29.2852 100.31 30.4022 101.37 31.7546 102.037L31.7544 102.037Z" fill="white"/>
<path d="M22.4022 104.147C22.4614 104.443 22.4923 104.744 22.4944 105.046C21.9043 105.458 21.2571 105.783 20.5732 106.009C20.5155 106.029 20.4558 106.047 20.398 106.064C20.3401 106.082 20.2802 106.1 20.2203 106.116C20.1228 106.144 20.0229 106.169 19.9226 106.192C19.902 106.198 19.8796 106.203 19.8587 106.207L19.765 106.227C19.7112 106.239 19.6574 106.25 19.6032 106.26L19.4632 106.284C19.4371 106.29 19.4114 106.293 19.386 106.297C18.5246 106.435 17.6453 106.421 16.789 106.254C16.7867 106.25 16.7853 106.246 16.7847 106.242C16.7728 106.218 16.7626 106.193 16.7542 106.167C16.6354 105.886 16.5439 105.595 16.4811 105.296C16.1163 103.588 16.6818 101.959 17.7815 101.222C17.2581 101.123 16.7854 100.846 16.4436 100.439C16.1018 100.032 15.912 99.5194 15.9064 98.9888C15.9008 98.4582 16.0798 97.942 16.4129 97.5279C16.7461 97.1137 17.2129 96.8272 17.7341 96.717C17.8591 96.6903 17.9862 96.6742 18.114 96.6689C17.9586 98.2048 18.2882 99.7508 19.0569 101.091C19.8256 102.432 20.9951 103.5 22.4023 104.147L22.4022 104.147Z" fill="white"/>
<path d="M99.2173 66.067C99.2175 66.235 99.2005 66.4027 99.1667 66.5673C98.7054 66.7622 98.2094 66.8626 97.7083 66.8626C97.2072 66.8626 96.7112 66.7622 96.2498 66.5673C96.216 66.4027 96.1991 66.235 96.1992 66.067C96.1992 65.1935 96.6458 64.4553 97.2609 64.2086C97.0152 64.1058 96.8129 63.9214 96.6883 63.6869C96.5637 63.4524 96.5243 63.1821 96.577 62.922C96.6297 62.6619 96.7711 62.428 96.9773 62.2599C97.1835 62.0918 97.4417 62 97.7082 62C97.9746 62 98.2328 62.0918 98.439 62.2599C98.6452 62.428 98.7867 62.6619 98.8393 62.922C98.892 63.1821 98.8527 63.4524 98.7281 63.6869C98.6034 63.9214 98.4011 64.1058 98.1555 64.2086C98.7708 64.4553 99.2173 65.1935 99.2173 66.067Z" fill="#A2D45A"/>
<path d="M99.2173 81.2437C99.2175 81.4118 99.2005 81.5794 99.1667 81.7441C98.7054 81.9389 98.2094 82.0394 97.7083 82.0394C97.2072 82.0394 96.7112 81.9389 96.2498 81.7441C96.216 81.5794 96.1991 81.4118 96.1992 81.2437C96.1992 80.3703 96.6458 79.6321 97.2609 79.3854C97.0152 79.2825 96.8129 79.0982 96.6883 78.8637C96.5637 78.6291 96.5243 78.3589 96.577 78.0988C96.6297 77.8387 96.7711 77.6047 96.9773 77.4366C97.1835 77.2686 97.4417 77.1768 97.7082 77.1768C97.9746 77.1768 98.2328 77.2686 98.439 77.4366C98.6452 77.6047 98.7867 77.8387 98.8393 78.0988C98.892 78.3589 98.8527 78.6291 98.7281 78.8637C98.6034 79.0982 98.4011 79.2825 98.1555 79.3854C98.7708 79.6321 99.2173 80.3703 99.2173 81.2437Z" fill="#A2D45A"/>
<path d="M99.2173 96.1187C99.2175 96.2868 99.2005 96.4544 99.1667 96.6191C98.7054 96.814 98.2094 96.9144 97.7083 96.9144C97.2072 96.9144 96.7112 96.814 96.2498 96.6191C96.216 96.4544 96.1991 96.2868 96.1992 96.1187C96.1992 95.2453 96.6458 94.5071 97.2609 94.2604C97.0152 94.1575 96.8129 93.9732 96.6883 93.7387C96.5637 93.5041 96.5243 93.2339 96.577 92.9738C96.6297 92.7137 96.7711 92.4797 96.9773 92.3116C97.1835 92.1436 97.4417 92.0518 97.7082 92.0518C97.9746 92.0518 98.2328 92.1436 98.439 92.3116C98.6452 92.4797 98.7867 92.7137 98.8393 92.9738C98.892 93.2339 98.8527 93.5041 98.7281 93.7387C98.6034 93.9732 98.4011 94.1575 98.1555 94.2604C98.7708 94.5071 99.2173 95.2453 99.2173 96.1187Z" fill="#A2D45A"/>
<path d="M91.4631 101.216C93.0111 101.216 94.2661 99.9661 94.2661 98.4244C94.2661 96.8826 93.0111 95.6328 91.4631 95.6328C89.9151 95.6328 88.6602 96.8826 88.6602 98.4244C88.6602 99.9661 89.9151 101.216 91.4631 101.216Z" fill="#FFB8B8"/>
</g>
<defs>
<clipPath id="clip0_665_9074">
<rect width="142" height="124" fill="white"/>
</clipPath>
</defs>
</svg>
