<svg width="41" height="40" viewBox="0 0 41 40" fill="none" xmlns="http://www.w3.org/2000/svg">
<circle cx="20.332" cy="20" r="20" fill="#F3F5F7"/>
<path d="M18.2201 18.0684C17.5361 18.0684 16.9961 18.6684 16.9961 19.4004C16.9961 20.1324 17.5481 20.7324 18.2201 20.7324C18.9041 20.7324 19.4441 20.1324 19.4441 19.4004C19.4561 18.6684 18.9041 18.0684 18.2201 18.0684ZM22.6001 18.0684C21.9161 18.0684 21.3761 18.6684 21.3761 19.4004C21.3761 20.1324 21.9281 20.7324 22.6001 20.7324C23.2841 20.7324 23.8241 20.1324 23.8241 19.4004C23.8241 18.6684 23.2841 18.0684 22.6001 18.0684Z" fill="#3A69A6"/>
<path d="M28.4306 8H12.3506C10.9946 8 9.89062 9.104 9.89062 10.472V26.696C9.89062 28.064 10.9946 29.168 12.3506 29.168H25.9586L25.3226 26.948L26.8586 28.376L28.3106 29.72L30.8906 32V10.472C30.8906 9.104 29.7866 8 28.4306 8ZM23.7986 23.672C23.7986 23.672 23.3666 23.156 23.0066 22.7C24.5786 22.256 25.1786 21.272 25.1786 21.272C24.6866 21.596 24.2186 21.824 23.7986 21.98C23.1986 22.232 22.6226 22.4 22.0586 22.496C20.9066 22.712 19.8506 22.652 18.9506 22.484C18.2666 22.352 17.6786 22.16 17.1866 21.968C16.9106 21.86 16.6106 21.728 16.3106 21.56C16.2746 21.536 16.2386 21.524 16.2026 21.5C16.1786 21.488 16.1666 21.476 16.1546 21.464C15.9386 21.344 15.8186 21.26 15.8186 21.26C15.8186 21.26 16.3946 22.22 17.9186 22.676C17.5586 23.132 17.1146 23.672 17.1146 23.672C14.4626 23.588 13.4546 21.848 13.4546 21.848C13.4546 17.984 15.1826 14.852 15.1826 14.852C16.9106 13.556 18.5546 13.592 18.5546 13.592L18.6746 13.736C16.5146 14.36 15.5186 15.308 15.5186 15.308C15.5186 15.308 15.7826 15.164 16.2266 14.96C17.5106 14.396 18.5306 14.24 18.9506 14.204C19.0226 14.192 19.0826 14.18 19.1546 14.18C19.8866 14.084 20.7146 14.06 21.5786 14.156C22.7186 14.288 23.9426 14.624 25.1906 15.308C25.1906 15.308 24.2426 14.408 22.2026 13.784L22.3706 13.592C22.3706 13.592 24.0146 13.556 25.7426 14.852C25.7426 14.852 27.4706 17.984 27.4706 21.848C27.4706 21.848 26.4506 23.588 23.7986 23.672Z" fill="#3A69A6"/>
</svg>
