<svg width="81" height="72" viewBox="0 0 81 72" fill="none" xmlns="http://www.w3.org/2000/svg">
<g clip-path="url(#clip0_2720_16562)">
<path d="M79.7998 27.5343C79.7712 27.5343 79.7432 27.5255 79.7197 27.509L40.9044 0.406958C40.7863 0.324865 40.6459 0.280993 40.5022 0.281239C40.3585 0.281485 40.2183 0.325836 40.1004 0.408332L1.56474 27.5088C1.53426 27.5302 1.49653 27.5386 1.45986 27.5322C1.42319 27.5257 1.39058 27.5049 1.3692 27.4744C1.34782 27.4438 1.33943 27.406 1.34586 27.3692C1.3523 27.3324 1.37304 27.2998 1.40352 27.2783L39.9392 0.177885C40.1042 0.0624075 40.3005 0.000332877 40.5018 1.33504e-06C40.703 -0.000330207 40.8995 0.0610967 41.0648 0.17603L79.8801 27.278C79.9046 27.2952 79.9231 27.3197 79.9327 27.3481C79.9424 27.3764 79.9427 27.4071 79.9338 27.4357C79.9248 27.4643 79.907 27.4893 79.8829 27.507C79.8588 27.5247 79.8297 27.5343 79.7998 27.5343L79.7998 27.5343Z" fill="#3F3D56"/>
<path d="M3.76562 28.4952L40.5392 1.1709L77.5919 30.4395L42.434 51.3356L23.3463 46.9734L3.76562 28.4952Z" fill="#E6E6E6"/>
<path d="M24.9544 64.242H6.78734C6.67579 64.2421 6.56531 64.2202 6.46221 64.1775C6.3591 64.1348 6.26541 64.0721 6.18648 63.9931C6.10755 63.9141 6.04494 63.8202 6.00221 63.7169C5.95949 63.6136 5.9375 63.5028 5.9375 63.391C5.9375 63.2792 5.95949 63.1684 6.00221 63.0651C6.04494 62.9618 6.10755 62.8679 6.18648 62.7889C6.26541 62.7099 6.3591 62.6472 6.46221 62.6045C6.56531 62.5618 6.67579 62.5399 6.78734 62.54H24.9544C25.066 62.5399 25.1764 62.5618 25.2795 62.6045C25.3826 62.6472 25.4763 62.7099 25.5553 62.7889C25.6342 62.8679 25.6968 62.9618 25.7395 63.0651C25.7823 63.1684 25.8042 63.2792 25.8042 63.391C25.8042 63.5028 25.7823 63.6136 25.7395 63.7169C25.6968 63.8202 25.6342 63.9141 25.5553 63.9931C25.4763 64.0721 25.3826 64.1348 25.2795 64.1775C25.1764 64.2202 25.066 64.2421 24.9544 64.242Z" fill="#A2D45A"/>
<path d="M13.3053 60.5837H6.78735C6.67579 60.5839 6.56531 60.562 6.46221 60.5193C6.3591 60.4766 6.26541 60.4139 6.18648 60.3349C6.10755 60.2558 6.04494 60.162 6.00221 60.0587C5.95949 59.9554 5.9375 59.8446 5.9375 59.7328C5.9375 59.6209 5.95949 59.5102 6.00221 59.4069C6.04494 59.3036 6.10755 59.2097 6.18648 59.1307C6.26541 59.0517 6.3591 58.989 6.46221 58.9463C6.56531 58.9036 6.67579 58.8817 6.78735 58.8818H13.3053C13.4168 58.8817 13.5273 58.9036 13.6304 58.9463C13.7335 58.989 13.8272 59.0517 13.9061 59.1307C13.9851 59.2097 14.0477 59.3036 14.0904 59.4069C14.1331 59.5102 14.1551 59.6209 14.1551 59.7328C14.1551 59.8446 14.1331 59.9554 14.0904 60.0587C14.0477 60.162 13.9851 60.2558 13.9061 60.3349C13.8272 60.4139 13.7335 60.4766 13.6304 60.5193C13.5273 60.562 13.4168 60.5839 13.3053 60.5837Z" fill="#A2D45A"/>
<path d="M41.0587 43.7137C40.9206 43.7139 40.7838 43.687 40.656 43.6346L17.9766 34.1999V4.66762C17.9769 4.40647 18.0805 4.15611 18.2646 3.97145C18.4488 3.7868 18.6985 3.68292 18.959 3.68262H62.4678C62.7283 3.68292 62.978 3.7868 63.1622 3.97145C63.3463 4.15611 63.4499 4.40647 63.4502 4.66762V34.2205L63.4076 34.2388L41.4735 43.63C41.3422 43.6854 41.2011 43.7138 41.0587 43.7137Z" fill="#FCFCFC"/>
<path d="M41.0585 43.785C40.9113 43.7852 40.7654 43.7566 40.6291 43.7008L17.9062 34.2479V4.66864C17.9066 4.38884 18.0176 4.12059 18.2149 3.92274C18.4122 3.72489 18.6798 3.6136 18.9589 3.61328H62.4676C62.7467 3.6136 63.0143 3.72489 63.2116 3.92274C63.409 4.12059 63.52 4.38884 63.5203 4.66864V34.268L41.5009 43.6957C41.3609 43.7548 41.2105 43.7852 41.0585 43.785ZM18.1869 34.06L40.7361 43.4406C40.9465 43.5262 41.182 43.5248 41.3913 43.4367L63.2396 34.0822V4.66864C63.2393 4.46346 63.1579 4.26674 63.0132 4.12166C62.8685 3.97657 62.6723 3.89495 62.4676 3.89471H18.9589C18.7542 3.89495 18.558 3.97657 18.4133 4.12166C18.2686 4.26674 18.1872 4.46346 18.187 4.66864L18.1869 34.06Z" fill="#3F3D56"/>
<path d="M79.5175 27.2529H79.4894L63.3772 34.1508L41.3323 43.5885C41.2462 43.6248 41.1537 43.6437 41.0603 43.6442C40.9668 43.6447 40.8742 43.6267 40.7877 43.5913L18.0439 34.131L1.53577 27.2642L1.51055 27.2529H1.48246C1.22198 27.2532 0.972257 27.3571 0.788073 27.5417C0.603889 27.7264 0.500289 27.9768 0.5 28.2379V71.0151C0.500289 71.2762 0.60389 71.5266 0.788073 71.7113C0.972257 71.8959 1.22198 71.9998 1.48246 72.0001H79.5175C79.778 71.9998 80.0277 71.8959 80.2119 71.7113C80.3961 71.5266 80.4997 71.2762 80.5 71.0151V28.2379C80.4997 27.9768 80.3961 27.7264 80.2119 27.5417C80.0277 27.3571 79.778 27.2532 79.5175 27.2529ZM80.2193 71.0151C80.2192 71.2017 80.1453 71.3806 80.0137 71.5125C79.8821 71.6445 79.7036 71.7186 79.5175 71.7187H1.48246C1.29636 71.7186 1.11791 71.6445 0.986324 71.5125C0.854735 71.3806 0.780776 71.2017 0.780702 71.0151V28.2379C0.780956 28.056 0.851349 27.8812 0.977162 27.7501C1.10298 27.6189 1.27447 27.5417 1.4558 27.5344L18.0439 34.435L40.6797 43.8516C40.9247 43.9516 41.1993 43.95 41.4432 43.8474L63.3772 34.4561L79.5456 27.5344C79.7267 27.5422 79.8977 27.6197 80.0232 27.7507C80.1486 27.8818 80.2189 28.0563 80.2193 28.2379V71.0151Z" fill="#3F3D56"/>
<path d="M40.8268 35.3403C39.9895 35.3418 39.1744 35.0704 38.5045 34.5669L38.463 34.5356L29.7176 27.8225C29.3126 27.5114 28.9727 27.1233 28.7172 26.6805C28.4618 26.2376 28.2959 25.7487 28.2289 25.2415C28.162 24.7344 28.1953 24.219 28.327 23.7248C28.4587 23.2306 28.6862 22.7672 28.9965 22.3611C29.3069 21.9551 29.6939 21.6143 30.1356 21.3582C30.5773 21.1021 31.065 20.9357 31.5708 20.8686C32.0767 20.8015 32.5907 20.8349 33.0837 20.9669C33.5766 21.099 34.0388 21.3271 34.4438 21.6382L40.1084 25.993L53.4948 8.49C53.8052 8.08404 54.1924 7.74336 54.6342 7.48742C55.076 7.23148 55.5637 7.06529 56.0696 6.99834C56.5754 6.9314 57.0895 6.965 57.5824 7.09724C58.0753 7.22948 58.5374 7.45776 58.9422 7.76905L58.859 7.88234L58.9444 7.77069C59.7612 8.40005 60.2956 9.32853 60.4304 10.3524C60.5652 11.3763 60.2894 12.412 59.6635 13.2323L43.9179 33.82C43.5537 34.2944 43.0855 34.6784 42.5494 34.942C42.0133 35.2057 41.4239 35.3419 40.8268 35.3403Z" fill="#A2D45A"/>
</g>
<defs>
<clipPath id="clip0_2720_16562">
<rect width="80" height="72" fill="white" transform="translate(0.5)"/>
</clipPath>
</defs>
</svg>
