<svg xmlns="http://www.w3.org/2000/svg" width="40" height="39.166" viewBox="0 0 40 39.166">
    <defs>
        <style>
            .cls-1{fill:#757575}
        </style>
    </defs>
    <path id="tasks" d="M-618.286-1159.033a8.817 8.817 0 0 1-8.714-8.849v-21.469a8.864 8.864 0 0 1 8.714-8.848h21.143a8.817 8.817 0 0 1 8.714 8.848v8.559a.68.68 0 0 1-.714.725.68.68 0 0 1-.715-.725v-8.559a7.31 7.31 0 0 0-7.286-7.325h-21.143a7.31 7.31 0 0 0-7.285 7.325v21.542a7.373 7.373 0 0 0 7.285 7.4h9.143a.626.626 0 0 1 .714.653.68.68 0 0 1-.714.725zm13.572-.8a1.311 1.311 0 0 1-.286-1.233l1.214-4.642a1.579 1.579 0 0 1 .357-.58l10.786-10.952a2.05 2.05 0 0 1 3 0l2 2.1a2.126 2.126 0 0 1 0 3.046l-10.715 10.88a1.482 1.482 0 0 1-.715.435l-4.428 1.233a1.822 1.822 0 0 1-.3.026 1.413 1.413 0 0 1-.913-.311zm1.286-2.249a.731.731 0 0 0 .928.943l2.143-.8-2.285-2.321zm1.429-3.626l3 3.118 7.285-7.471-3-3.046zm10.285-10.444l-2 2.031 3.072 3.046 2-2.03a.659.659 0 0 0-.071-1.016l-2-2.031a.7.7 0 0 0-.5-.218.7.7 0 0 0-.501.219zm-23.929 9.139a1.44 1.44 0 0 1 1.429-1.451 1.44 1.44 0 0 1 1.429 1.451 1.44 1.44 0 0 1-1.429 1.45 1.44 1.44 0 0 1-1.429-1.449zm-4.285 0a1.44 1.44 0 0 1 1.429-1.451 1.439 1.439 0 0 1 1.428 1.451 1.439 1.439 0 0 1-1.428 1.45 1.44 1.44 0 0 1-1.43-1.449zm.714-8.2a.773.773 0 0 1-.214-1.16l1.786-2.031-2.072-1.813a.9.9 0 0 1-.143-.943.749.749 0 0 1 1.143-.218l2.072 1.813 1.786-2.1a.687.687 0 0 1 1-.073.712.712 0 0 1 .071 1.015l-1.786 2.1 2.072 1.813a.733.733 0 0 1 .072 1.088.687.687 0 0 1-1 .073l-2.072-1.813-1.786 2.1a.844.844 0 0 1-.586.22.76.76 0 0 1-.344-.066zm11.5-2.611a.68.68 0 0 1-.715-.725.68.68 0 0 1 .715-.725h12.856a.68.68 0 0 1 .715.725.722.722 0 0 1-.715.725zm-10.286-8.2l-3.286-2.466a.787.787 0 0 1-.143-1.015.76.76 0 0 1 1-.146l2.714 2.1 4.429-5.3a.687.687 0 0 1 1-.073.991.991 0 0 1 .215.943l-4.928 5.8a.648.648 0 0 1-.571.29 1 1 0 0 1-.43-.124zm10.286-1.958a.681.681 0 0 1-.715-.726.68.68 0 0 1 .715-.725h12.856a.68.68 0 0 1 .715.725.681.681 0 0 1-.715.726z" class="cls-1" transform="translate(627 1198.2)"/>
</svg>
