<svg width="41" height="40" viewBox="0 0 41 40" fill="none" xmlns="http://www.w3.org/2000/svg">
<circle cx="20.668" cy="20" r="20" fill="#F3F5F7"/>
<g clip-path="url(#clip0_4832_41032)">
<path fill-rule="evenodd" clip-rule="evenodd" d="M32.668 20C32.668 26.6274 27.2954 32 20.668 32C14.0406 32 8.66797 26.6274 8.66797 20C8.66797 13.3726 14.0406 8 20.668 8C27.2954 8 32.668 13.3726 32.668 20ZM21.098 16.8589C19.9308 17.3444 17.5981 18.3492 14.0999 19.8733C13.5318 20.0992 13.2342 20.3202 13.2071 20.5363C13.1614 20.9015 13.6187 21.0453 14.2414 21.2411C14.3262 21.2678 14.4139 21.2954 14.5039 21.3246C15.1166 21.5238 15.9408 21.7568 16.3693 21.766C16.7579 21.7744 17.1917 21.6142 17.6706 21.2853C20.9391 19.079 22.6264 17.9638 22.7323 17.9398C22.807 17.9228 22.9106 17.9015 22.9807 17.9638C23.0509 18.0262 23.044 18.1443 23.0366 18.176C22.9913 18.3691 21.1961 20.0381 20.2671 20.9018C19.9775 21.171 19.772 21.362 19.73 21.4056C19.636 21.5033 19.5401 21.5958 19.4479 21.6846C18.8787 22.2333 18.4519 22.6448 19.4716 23.3168C19.9616 23.6397 20.3537 23.9067 20.7449 24.1731C21.1721 24.4641 21.5983 24.7543 22.1496 25.1157C22.29 25.2077 22.4242 25.3034 22.5549 25.3965C23.052 25.751 23.4987 26.0694 24.0506 26.0186C24.3712 25.9891 24.7024 25.6876 24.8706 24.7884C25.2682 22.6631 26.0496 18.0585 26.2302 16.161C26.246 15.9947 26.2261 15.782 26.2101 15.6886C26.1941 15.5952 26.1607 15.4621 26.0393 15.3636C25.8956 15.2469 25.6736 15.2223 25.5743 15.2241C25.123 15.232 24.4305 15.4728 21.098 16.8589Z" fill="#3A69A6"/>
</g>
<defs>
<clipPath id="clip0_4832_41032">
<rect width="24" height="24" fill="white" transform="translate(8.66797 8)"/>
</clipPath>
</defs>
</svg>
