<svg width="40" height="40" viewBox="0 0 40 40" fill="none" xmlns="http://www.w3.org/2000/svg">
<circle cx="20" cy="20" r="20" fill="#F3F5F7"/>
<g clip-path="url(#clip0_4832_41038)">
<path fill-rule="evenodd" clip-rule="evenodd" d="M24.8416 14.5477C23.6026 13.366 21.9491 12.7222 20.2383 12.7487C17.1077 12.7487 14.4488 14.8607 13.5008 17.7047C12.9982 19.1951 12.9982 20.809 13.5008 22.2993H13.5052C14.4576 25.1389 17.1121 27.251 20.2427 27.251C21.8587 27.251 23.2461 26.8376 24.3213 26.1076V26.1046C25.5868 25.2668 26.451 23.9484 26.72 22.4581H20.2383V17.8371H31.5571C31.6982 18.6396 31.7643 19.4597 31.7643 20.2755C31.7643 23.9253 30.4599 27.0111 28.1903 29.1011L28.1927 29.1029C26.2041 30.9372 23.4747 31.9998 20.2383 31.9998C15.7011 31.9998 11.5519 29.4424 9.51477 25.3903C7.81278 21.9995 7.81278 18.0046 9.51478 14.6139C11.5519 10.5573 15.7011 7.99983 20.2383 7.99983C23.219 7.96456 26.0983 9.08453 28.2677 11.1216L24.8416 14.5477Z" fill="#3A69A6"/>
</g>
<defs>
<clipPath id="clip0_4832_41038">
<rect width="24" height="24" fill="white" transform="translate(8 8)"/>
</clipPath>
</defs>
</svg>
