<svg xmlns="http://www.w3.org/2000/svg" width="40" height="36.667" viewBox="0 0 40 36.667">
    <defs>
        <style>
            .cls-1{fill:#21bf84}
        </style>
    </defs>
    <path id="message" d="M-327.573-1162.912a.666.666 0 0 1-.427-.621v-6.658h-4.047a3.954 3.954 0 0 1-3.953-3.949v-14.075a3.954 3.954 0 0 1 3.953-3.948l5.38-.012v-3.412a3.956 3.956 0 0 1 3.954-3.948l22.761.047a3.955 3.955 0 0 1 3.952 3.948v14.077a3.955 3.955 0 0 1-3.953 3.948h-.714v6.658a.666.666 0 0 1-.427.621.671.671 0 0 1-.239.044.671.671 0 0 1-.494-.217l-3.506-3.853v.076a3.955 3.955 0 0 1-3.954 3.947l-11.083.045-6.469 7.107a.669.669 0 0 1-.494.218.671.671 0 0 1-.24-.043zm-4.472-27.921a2.622 2.622 0 0 0-2.622 2.617v14.076a2.621 2.621 0 0 0 2.62 2.615h4.713a.666.666 0 0 1 .667.666v5.6l5.507-6.051a.669.669 0 0 1 .491-.218l11.38-.046a2.622 2.622 0 0 0 2.624-2.616v-14.077a2.621 2.621 0 0 0-2.621-2.616l-16.712.034zm26.712 2.57v12.02l3.334 3.662v-5.6a.666.666 0 0 1 .666-.666h1.381a2.621 2.621 0 0 0 2.62-2.616v-14.077a2.621 2.621 0 0 0-2.62-2.616l-22.761-.047a2.621 2.621 0 0 0-2.618 2.617v3.408l16.045-.032a3.955 3.955 0 0 1 3.953 3.947zm-24 12.031a.667.667 0 0 1-.667-.666.667.667 0 0 1 .667-.666H-312a.666.666 0 0 1 .666.666.666.666 0 0 1-.666.666zm0-3.995a.666.666 0 0 1-.667-.666.666.666 0 0 1 .667-.665H-312a.666.666 0 0 1 .666.665.666.666 0 0 1-.666.666zm0-4a.666.666 0 0 1-.667-.665.666.666 0 0 1 .667-.666h8.667a.666.666 0 0 1 .667.666.666.666 0 0 1-.667.665z" class="cls-1" transform="translate(336 1199.535)"/>
</svg>
