<svg width="328" height="205" viewBox="0 0 328 205" fill="none" xmlns="http://www.w3.org/2000/svg">
<path d="M161.368 204H85.6323C83.9268 204.005 82.2552 203.521 80.8136 202.605C79.6579 201.881 78.7025 200.876 78.0358 199.682C77.3692 198.489 77.0129 197.145 77 195.777V18.229C77 13.6915 80.8725 10 85.6323 10H103.431V11.6332C103.431 15.1187 106.416 17.9543 110.084 17.9543H135.176C136.588 17.9622 137.968 17.5302 139.126 16.7178C139.946 16.148 140.62 15.3893 141.09 14.5049C141.56 13.6205 141.814 12.6359 141.829 11.6332V10H161.368C166.128 10 170 13.6915 170 18.229V195.777C169.993 196.983 169.716 198.172 169.19 199.256C168.664 200.339 167.902 201.29 166.96 202.038C165.374 203.315 163.4 204.008 161.368 204ZM85.6323 10.5C81.1467 10.5 77.4973 13.9673 77.4973 18.229V195.777C77.5104 197.061 77.8457 198.322 78.4722 199.442C79.0986 200.562 79.996 201.505 81.0812 202.184C82.4428 203.049 84.0216 203.505 85.6323 203.5H161.368C163.286 203.508 165.15 202.855 166.648 201.649C167.531 200.949 168.247 200.057 168.741 199.04C169.235 198.023 169.496 196.908 169.503 195.777V18.229C169.503 13.9673 165.853 10.5 161.368 10.5H142.326V11.6332C142.311 12.7167 142.038 13.7808 141.531 14.7368C141.023 15.6928 140.296 16.5129 139.409 17.1287C138.168 17.9994 136.689 18.4625 135.176 18.4543H110.084C106.141 18.4543 102.934 15.3944 102.934 11.6332V10.5H85.6323Z" fill="#172A42"/>
<path d="M164 25.2573V186.748C163.998 188.671 163.224 190.516 161.847 191.875C160.471 193.235 158.605 193.999 156.659 194H90.3412C89.3771 194.002 88.4221 193.815 87.531 193.451C86.6399 193.088 85.8302 192.554 85.1482 191.88C84.4662 191.206 83.9255 190.406 83.5568 189.525C83.1882 188.645 82.999 187.701 83 186.748V25.2573C82.9999 24.3043 83.1897 23.3605 83.5586 22.48C83.9275 21.5994 84.4683 20.7994 85.15 20.1254C85.8317 19.4515 86.641 18.917 87.5317 18.5523C88.4224 18.1876 89.3771 17.9999 90.3412 18H100.266V19.2581C100.265 20.8429 100.902 22.3629 102.035 23.4837C103.168 24.6045 104.706 25.2345 106.309 25.2349H140.038C141.329 25.2376 142.586 24.8287 143.622 24.069C143.832 23.9183 144.03 23.7535 144.217 23.5757C144.807 23.0184 145.277 22.3483 145.598 21.6061C145.918 20.864 146.083 20.0651 146.082 19.2581V18H156.659C157.623 17.9997 158.578 18.1872 159.469 18.5518C160.359 18.9165 161.169 19.451 161.85 20.125C162.532 20.7989 163.073 21.5991 163.442 22.4797C163.811 23.3604 164 24.3042 164 25.2573Z" fill="#F2F2F2"/>
<path d="M146 147H102V100H146V147ZM102.564 146.44H145.436V100.56H102.564V146.44Z" fill="#172A42"/>
<path d="M108.028 124.968C107.777 120.734 109.217 116.573 112.031 113.399C114.846 110.224 118.806 108.294 123.042 108.032C123.367 108.01 123.702 108 124.027 108C128.185 108.011 132.175 109.636 135.155 112.533C138.134 115.43 139.869 119.372 139.993 123.524C140.117 127.676 138.619 131.713 135.818 134.782C133.016 137.851 129.13 139.711 124.98 139.969C124.656 139.99 124.32 140 123.996 140C119.921 139.992 116.001 138.433 113.035 135.641C110.069 132.849 108.278 129.032 108.028 124.968ZM123.147 109.716C119.432 109.943 115.951 111.606 113.441 114.353C110.932 117.099 109.591 120.714 109.703 124.432C109.814 128.149 111.37 131.677 114.039 134.269C116.709 136.86 120.283 138.312 124.005 138.316C124.299 138.316 124.592 138.306 124.885 138.285C128.6 138.058 132.081 136.395 134.591 133.648C137.1 130.901 138.441 127.287 138.329 123.569C138.218 119.852 136.663 116.324 133.993 113.732C131.324 111.14 127.75 109.689 124.027 109.684C123.734 109.684 123.44 109.695 123.147 109.716ZM122.54 136.203C122.222 136.223 121.904 136.161 121.616 136.024C121.328 135.886 121.08 135.678 120.896 135.418C120.711 135.158 120.596 134.856 120.561 134.539C120.526 134.222 120.573 133.902 120.697 133.608L122.696 127.96C123.053 126.945 123.681 126.789 124.016 126.789C124.351 126.789 124.979 126.945 125.335 127.96L127.325 133.608C127.441 133.904 127.483 134.223 127.449 134.538C127.414 134.853 127.303 135.155 127.126 135.418C126.934 135.67 126.685 135.873 126.399 136.009C126.113 136.146 125.798 136.212 125.482 136.202L122.54 136.203ZM122.288 134.174C122.247 134.31 122.247 134.404 122.278 134.446C122.354 134.501 122.447 134.527 122.54 134.519H125.482C125.629 134.519 125.713 134.487 125.744 134.446C125.776 134.414 125.776 134.31 125.723 134.174L124.006 129.31L122.288 134.174ZM128.435 133.159L125.849 127.751C125.482 126.976 125.618 126.464 125.796 126.181C126.142 125.627 126.875 125.491 127.712 125.889L133.115 128.473C133.406 128.601 133.663 128.797 133.863 129.045C134.064 129.292 134.202 129.584 134.267 129.895C134.312 130.209 134.279 130.529 134.174 130.827C134.068 131.126 133.892 131.395 133.66 131.611L131.576 133.693C131.392 133.886 131.172 134.042 130.927 134.149C130.683 134.257 130.419 134.315 130.152 134.32C129.429 134.32 128.78 133.891 128.435 133.159L128.435 133.159ZM129.964 132.437C130.016 132.552 130.1 132.636 130.152 132.636C130.238 132.616 130.315 132.568 130.372 132.5L132.455 130.418C132.56 130.313 132.602 130.23 132.591 130.178C132.591 130.136 132.518 130.063 132.392 130L127.733 127.772L129.964 132.437ZM116.457 133.692L114.373 131.61C114.139 131.396 113.961 131.127 113.855 130.828C113.749 130.529 113.719 130.208 113.766 129.895C113.827 129.583 113.963 129.291 114.162 129.043C114.36 128.796 114.616 128.6 114.907 128.472L120.319 125.888C121.157 125.48 121.89 125.627 122.236 126.181C122.414 126.474 122.55 126.976 122.183 127.75L119.597 133.158C119.252 133.88 118.602 134.32 117.88 134.32C117.613 134.314 117.35 134.256 117.105 134.148C116.861 134.041 116.641 133.886 116.457 133.692L116.457 133.692ZM115.63 129.989C115.544 130.022 115.473 130.085 115.431 130.167C115.444 130.261 115.493 130.347 115.567 130.407L117.651 132.489C117.703 132.561 117.782 132.61 117.87 132.625C117.922 132.625 117.996 132.552 118.058 132.426L120.289 127.76L115.63 129.989ZM133.576 127.384L127.922 125.386C126.906 125.031 126.749 124.403 126.749 124.068C126.749 123.734 126.906 123.106 127.922 122.75L133.576 120.752C133.813 120.662 134.065 120.616 134.319 120.616C135.398 120.616 136.182 121.442 136.182 122.614V125.554C136.194 126.065 136.011 126.563 135.67 126.945C135.496 127.128 135.287 127.274 135.054 127.373C134.822 127.472 134.572 127.522 134.319 127.521C134.066 127.515 133.815 127.469 133.576 127.384H133.576ZM134.141 122.352L129.273 124.068L134.141 125.783C134.198 125.803 134.258 125.814 134.319 125.815C134.392 125.815 134.413 125.794 134.424 125.783C134.473 125.709 134.495 125.621 134.487 125.532V122.604C134.487 122.321 134.372 122.321 134.319 122.321C134.258 122.322 134.198 122.332 134.141 122.352ZM111.85 125.522V122.572C111.85 121.432 112.634 120.606 113.713 120.606C113.967 120.611 114.218 120.657 114.457 120.742L120.111 122.74C121.127 123.095 121.283 123.723 121.283 124.057C121.283 124.392 121.127 125.02 120.111 125.376L114.446 127.353C114.209 127.442 113.957 127.488 113.703 127.489C112.635 127.488 111.85 126.662 111.85 125.522ZM113.536 122.593V125.532C113.536 125.815 113.65 125.815 113.703 125.815C113.764 125.81 113.824 125.796 113.881 125.773L118.749 124.057L113.881 122.342C113.824 122.322 113.764 122.312 113.703 122.311C113.651 122.311 113.536 122.311 113.536 122.593ZM125.786 121.934C125.608 121.641 125.472 121.139 125.838 120.375L128.424 114.967C128.77 114.246 129.408 113.806 130.141 113.806C130.409 113.811 130.672 113.869 130.916 113.977C131.161 114.085 131.381 114.24 131.565 114.434L133.649 116.516C133.883 116.73 134.061 116.999 134.167 117.298C134.272 117.597 134.303 117.917 134.256 118.231C134.195 118.543 134.059 118.835 133.86 119.082C133.661 119.33 133.406 119.526 133.115 119.654L127.702 122.238C127.423 122.381 127.115 122.46 126.802 122.468C126.601 122.473 126.402 122.427 126.224 122.333C126.046 122.24 125.895 122.103 125.786 121.934L125.786 121.934ZM129.964 115.689L127.733 120.344L132.382 118.126C132.468 118.094 132.539 118.03 132.581 117.949C132.591 117.896 132.56 117.813 132.455 117.709L130.372 115.626C130.319 115.554 130.24 115.505 130.152 115.49C130.1 115.49 130.016 115.563 129.964 115.689ZM120.32 122.227L114.907 119.643C114.615 119.516 114.358 119.32 114.157 119.072C113.956 118.825 113.819 118.532 113.755 118.22C113.713 117.907 113.746 117.588 113.852 117.289C113.957 116.991 114.132 116.722 114.362 116.505L116.457 114.413C116.641 114.219 116.861 114.064 117.105 113.956C117.35 113.848 117.613 113.79 117.88 113.785C118.603 113.785 119.252 114.214 119.598 114.946L122.184 120.354C122.55 121.128 122.414 121.64 122.236 121.923C122.126 122.09 121.975 122.227 121.797 122.32C121.619 122.414 121.421 122.461 121.22 122.457C120.907 122.448 120.599 122.369 120.32 122.227ZM117.65 115.616L115.567 117.697C115.494 117.759 115.446 117.844 115.431 117.937C115.431 117.979 115.504 118.053 115.63 118.115L120.289 120.333L118.059 115.677C118.007 115.562 117.923 115.479 117.871 115.479C117.784 115.499 117.707 115.547 117.65 115.616ZM122.697 120.156L120.707 114.507C120.591 114.211 120.549 113.893 120.584 113.577C120.618 113.262 120.729 112.96 120.906 112.697C121.098 112.445 121.347 112.242 121.633 112.106C121.919 111.97 122.234 111.903 122.55 111.913H125.493C125.81 111.901 126.125 111.966 126.411 112.103C126.697 112.239 126.946 112.443 127.136 112.697C127.314 112.96 127.425 113.262 127.459 113.577C127.494 113.893 127.451 114.211 127.335 114.507L125.335 120.156C124.98 121.17 124.351 121.327 124.016 121.327C123.682 121.327 123.053 121.17 122.697 120.156ZM122.278 113.67C122.249 113.76 122.257 113.857 122.299 113.942L124.016 118.806L125.734 113.942C125.775 113.806 125.775 113.712 125.744 113.67C125.669 113.614 125.575 113.588 125.482 113.597H122.54C122.393 113.597 122.31 113.628 122.278 113.67Z" fill="url(#paint0_linear_2679_17608)"/>
<path d="M137 68H108V69H137V68Z" fill="#172A42"/>
<path d="M75.6346 204L75.3924 203.905C75.3392 203.884 70.043 201.759 67.562 196.941C65.0809 192.123 66.2958 186.322 66.3083 186.264L66.3655 186L66.6076 186.095C66.6608 186.116 71.9569 188.241 74.438 193.059C76.9191 197.877 75.7042 203.678 75.6917 203.736L75.6346 204ZM67.9593 196.717C70.0569 200.791 74.2421 202.879 75.3025 203.355C75.5041 202.165 76.1364 197.353 74.0407 193.283C71.9452 189.214 67.7583 187.123 66.6975 186.645C66.4958 187.835 65.8637 192.648 67.9593 196.717Z" fill="#172A42"/>
<path d="M69.4976 194.866C74.192 197.532 76 202.827 76 202.827C76 202.827 70.1968 203.8 65.5024 201.134C60.808 198.468 59 193.173 59 193.173C59 193.173 64.8032 192.2 69.4976 194.866Z" fill="#89CC29"/>
<mask id="path-8-inside-1_2679_17608" fill="white">
<path d="M284.97 79.9848C281.512 79.9982 278.087 79.3252 274.89 78.0047C265.971 74.274 260.065 66.2404 254.353 58.4713C251.269 54.277 248.081 49.94 244.439 46.2883C238.602 40.4367 231.831 36.6563 224.858 35.3558C217.02 33.8937 209.034 35.7845 203.495 40.4117C202.794 40.9976 202.134 41.6308 201.519 42.3068C202.328 42.4054 203.134 42.5106 203.938 42.6224C212.396 43.7986 223.004 47.0609 225.506 55.9232C226.467 59.3249 225.783 63.1757 223.631 66.4878C221.324 70.0368 217.653 72.4772 213.811 73.0156C213.185 73.103 212.553 73.1468 211.921 73.1464C205.002 73.1469 198.184 67.9854 196.165 60.8906C194.456 54.8822 196.181 47.881 200.387 42.7477C195.302 42.1662 190.19 41.8474 185.072 41.7927L185.078 41.2218C190.343 41.278 195.601 41.6127 200.83 42.2243C201.537 41.415 202.307 40.6622 203.131 39.973C208.799 35.2383 216.96 33.3027 224.962 34.7944C232.049 36.1161 238.923 39.951 244.841 45.8844C248.513 49.5665 251.715 53.921 254.811 58.1323C260.737 66.1936 266.335 73.808 275.108 77.4779C283.927 81.1668 294.755 79.4886 302.053 73.3027C309.351 67.117 312.811 56.6849 310.662 47.3439L311.217 47.2154C313.412 56.7596 309.877 67.4186 302.42 73.7389C297.6 77.8238 291.274 79.9847 284.97 79.9848ZM201.062 42.8267C196.799 47.8409 195.021 54.7904 196.713 60.7339C198.84 68.2114 206.476 73.4669 213.732 72.4503C217.414 71.9341 220.936 69.5887 223.154 66.1759C225.217 63.002 225.875 59.3217 224.959 56.0787C222.54 47.513 212.15 44.3407 203.86 43.188C202.93 43.0586 201.998 42.9382 201.062 42.8267Z"/>
</mask>
<path d="M284.97 79.9848C281.512 79.9982 278.087 79.3252 274.89 78.0047C265.971 74.274 260.065 66.2404 254.353 58.4713C251.269 54.277 248.081 49.94 244.439 46.2883C238.602 40.4367 231.831 36.6563 224.858 35.3558C217.02 33.8937 209.034 35.7845 203.495 40.4117C202.794 40.9976 202.134 41.6308 201.519 42.3068C202.328 42.4054 203.134 42.5106 203.938 42.6224C212.396 43.7986 223.004 47.0609 225.506 55.9232C226.467 59.3249 225.783 63.1757 223.631 66.4878C221.324 70.0368 217.653 72.4772 213.811 73.0156C213.185 73.103 212.553 73.1468 211.921 73.1464C205.002 73.1469 198.184 67.9854 196.165 60.8906C194.456 54.8822 196.181 47.881 200.387 42.7477C195.302 42.1662 190.19 41.8474 185.072 41.7927L185.078 41.2218C190.343 41.278 195.601 41.6127 200.83 42.2243C201.537 41.415 202.307 40.6622 203.131 39.973C208.799 35.2383 216.96 33.3027 224.962 34.7944C232.049 36.1161 238.923 39.951 244.841 45.8844C248.513 49.5665 251.715 53.921 254.811 58.1323C260.737 66.1936 266.335 73.808 275.108 77.4779C283.927 81.1668 294.755 79.4886 302.053 73.3027C309.351 67.117 312.811 56.6849 310.662 47.3439L311.217 47.2154C313.412 56.7596 309.877 67.4186 302.42 73.7389C297.6 77.8238 291.274 79.9847 284.97 79.9848ZM201.062 42.8267C196.799 47.8409 195.021 54.7904 196.713 60.7339C198.84 68.2114 206.476 73.4669 213.732 72.4503C217.414 71.9341 220.936 69.5887 223.154 66.1759C225.217 63.002 225.875 59.3217 224.959 56.0787C222.54 47.513 212.15 44.3407 203.86 43.188C202.93 43.0586 201.998 42.9382 201.062 42.8267Z" fill="#2F2E41"/>
<path d="M284.97 79.9848L284.97 78.9848L284.966 78.9849L284.97 79.9848ZM274.89 78.0047L274.504 78.9273L274.508 78.929L274.89 78.0047ZM254.353 58.4713L255.159 57.8789L255.159 57.8789L254.353 58.4713ZM244.439 46.2883L243.731 46.9945L243.731 46.9945L244.439 46.2883ZM224.858 35.3558L224.674 36.3388L224.674 36.3389L224.858 35.3558ZM203.495 40.4117L202.854 39.6442L202.853 39.6446L203.495 40.4117ZM201.519 42.3068L200.78 41.6341L199.478 43.0654L201.398 43.2995L201.519 42.3068ZM203.938 42.6224L203.8 43.6129H203.8L203.938 42.6224ZM225.506 55.9232L224.544 56.1949L224.544 56.195L225.506 55.9232ZM223.631 66.4878L224.469 67.0328L224.469 67.0328L223.631 66.4878ZM213.811 73.0156L213.949 74.006L213.949 74.0059L213.811 73.0156ZM211.921 73.1464L211.922 72.1464H211.921L211.921 73.1464ZM196.165 60.8906L195.204 61.1642L195.204 61.1642L196.165 60.8906ZM200.387 42.7477L201.16 43.3815L202.323 41.9626L200.501 41.7542L200.387 42.7477ZM185.072 41.7927L184.072 41.782L184.062 42.7819L185.062 42.7926L185.072 41.7927ZM185.078 41.2218L185.089 40.2219L184.089 40.2112L184.078 41.2111L185.078 41.2218ZM200.83 42.2243L200.714 43.2176L201.237 43.2787L201.583 42.8825L200.83 42.2243ZM203.131 39.973L202.49 39.2055L202.489 39.2059L203.131 39.973ZM224.962 34.7944L225.145 33.8114L225.145 33.8114L224.962 34.7944ZM244.841 45.8844L244.133 46.5906L244.133 46.5906L244.841 45.8844ZM254.811 58.1323L255.617 57.54L255.617 57.54L254.811 58.1323ZM275.108 77.4779L275.494 76.5554L275.494 76.5554L275.108 77.4779ZM302.053 73.3027L301.406 72.5398L301.406 72.5399L302.053 73.3027ZM310.662 47.3439L310.437 46.3698L309.464 46.5952L309.688 47.5682L310.662 47.3439ZM311.217 47.2154L312.191 46.9912L311.967 46.0151L310.991 46.2413L311.217 47.2154ZM302.42 73.7389L303.066 74.5018L302.42 73.7389ZM201.062 42.8267L201.181 41.8337L200.648 41.7702L200.3 42.1789L201.062 42.8267ZM196.713 60.7339L197.674 60.4603L197.674 60.4602L196.713 60.7339ZM213.732 72.4503L213.871 73.4406L213.871 73.4406L213.732 72.4503ZM223.154 66.1759L222.316 65.6309L222.316 65.6309L223.154 66.1759ZM224.959 56.0787L223.997 56.3505V56.3505L224.959 56.0787ZM203.86 43.188L203.722 44.1784L203.722 44.1784L203.86 43.188ZM284.966 78.9849C281.641 78.9977 278.346 78.3505 275.271 77.0805L274.508 78.929C277.827 80.3 281.384 80.9987 284.973 80.9848L284.966 78.9849ZM275.275 77.0822C266.657 73.477 260.906 65.6964 255.159 57.8789L253.547 59.0636C259.223 66.7845 265.285 75.071 274.504 78.9273L275.275 77.0822ZM255.159 57.8789C252.084 53.6964 248.851 49.2963 245.147 45.5821L243.731 46.9945C247.311 50.5836 250.455 54.8576 253.547 59.0636L255.159 57.8789ZM245.147 45.5821C239.192 39.6115 232.245 35.7162 225.041 34.3728L224.674 36.3389C231.418 37.5965 238.013 41.2618 243.731 46.9945L245.147 45.5821ZM225.041 34.3728C216.945 32.8625 208.648 34.8043 202.854 39.6442L204.136 41.1792C209.421 36.7647 217.096 34.925 224.674 36.3388L225.041 34.3728ZM202.853 39.6446C202.118 40.2597 201.425 40.9244 200.78 41.6341L202.259 42.9796C202.843 42.3372 203.471 41.7355 204.136 41.1788L202.853 39.6446ZM201.398 43.2995C202.201 43.3973 203.002 43.5018 203.8 43.6129L204.076 41.6319C203.266 41.5193 202.454 41.4134 201.64 41.3142L201.398 43.2995ZM203.8 43.6129C207.976 44.1936 212.618 45.2822 216.498 47.2796C220.371 49.2733 223.393 52.1205 224.544 56.1949L226.469 55.6514C225.117 50.8635 221.584 47.6484 217.413 45.5014C213.249 43.358 208.358 42.2274 204.076 41.6319L203.8 43.6129ZM224.544 56.195C225.417 59.2849 224.808 62.8406 222.792 65.9429L224.469 67.0328C226.758 63.5107 227.518 59.365 226.469 55.6513L224.544 56.195ZM222.792 65.9429C220.627 69.274 217.199 71.531 213.672 72.0252L213.949 74.0059C218.106 73.4234 222.021 70.7996 224.469 67.0328L222.792 65.9429ZM213.672 72.0252C213.092 72.1062 212.507 72.1467 211.922 72.1464L211.921 74.1464C212.599 74.1468 213.277 74.0998 213.949 74.006L213.672 72.0252ZM211.921 72.1464C205.466 72.1468 199.028 67.2988 197.127 60.6169L195.204 61.1642C197.34 68.6721 204.537 74.1469 211.921 74.1464L211.921 72.1464ZM197.127 60.6169C195.518 54.9625 197.135 48.2943 201.16 43.3815L199.613 42.1139C195.227 47.4676 193.393 54.8019 195.204 61.1642L197.127 60.6169ZM200.501 41.7542C195.381 41.1687 190.235 40.8478 185.083 40.7927L185.062 42.7926C190.145 42.847 195.222 43.1636 200.273 43.7412L200.501 41.7542ZM186.072 41.8034L186.078 41.2325L184.078 41.2111L184.072 41.782L186.072 41.8034ZM185.068 42.2217C190.297 42.2776 195.519 42.61 200.714 43.2176L200.946 41.2311C195.682 40.6153 190.389 40.2784 185.089 40.2219L185.068 42.2217ZM201.583 42.8825C202.256 42.1122 202.988 41.3959 203.772 40.7401L202.489 39.2059C201.625 39.9285 200.819 40.7177 200.077 41.5662L201.583 42.8825ZM203.772 40.7404C209.186 36.2181 217.036 34.334 224.778 35.7775L225.145 33.8114C216.884 32.2713 208.412 34.2586 202.49 39.2055L203.772 40.7404ZM224.778 35.7775C231.636 37.0563 238.334 40.7765 244.133 46.5906L245.549 45.1782C239.512 39.1255 232.462 35.1759 225.145 33.8114L224.778 35.7775ZM244.133 46.5906C247.743 50.2102 250.9 54.5018 254.005 58.7247L255.617 57.54C252.529 53.3402 249.284 48.9228 245.549 45.1782L244.133 46.5906ZM254.005 58.7247C259.897 66.7388 265.649 74.6051 274.723 78.4004L275.494 76.5554C267.021 73.0108 261.578 65.6485 255.617 57.54L254.005 58.7247ZM274.723 78.4004C283.888 82.2346 295.115 80.4942 302.699 74.0655L301.406 72.5399C294.394 78.4829 283.965 80.099 275.494 76.5554L274.723 78.4004ZM302.699 74.0656C310.284 67.6375 313.869 56.8243 311.637 47.1197L309.688 47.5682C311.753 56.5455 308.419 66.5965 301.406 72.5398L302.699 74.0656ZM310.888 48.3181L311.443 48.1896L310.991 46.2413L310.437 46.3698L310.888 48.3181ZM310.242 47.4396C312.354 56.6201 308.944 66.8981 301.773 72.9761L303.066 74.5018C310.81 67.9391 314.471 56.899 312.191 46.9912L310.242 47.4396ZM301.773 72.9761C297.147 76.8973 291.054 78.9847 284.97 78.9848L284.97 80.9848C291.494 80.9847 298.054 78.7503 303.066 74.5018L301.773 72.9761ZM200.3 42.1789C195.849 47.4146 193.957 54.7033 195.751 61.0076L197.674 60.4602C196.086 54.8776 197.749 48.2673 201.824 43.4745L200.3 42.1789ZM195.751 61.0076C198.002 68.9208 206.076 74.5327 213.871 73.4406L213.593 71.4599C206.876 72.4011 199.678 67.5019 197.674 60.4603L195.751 61.0076ZM213.871 73.4406C217.868 72.8802 221.633 70.3505 223.992 66.7208L222.316 65.6309C220.238 68.8269 216.959 70.9881 213.593 71.4599L213.871 73.4406ZM223.992 66.7208C226.191 63.3386 226.926 59.3634 225.921 55.8069L223.997 56.3505C224.824 59.2801 224.243 62.6654 222.316 65.6309L223.992 66.7208ZM225.921 55.8069C224.61 51.1629 221.148 48.0452 217.066 45.9627C212.989 43.883 208.195 42.7811 203.998 42.1975L203.722 44.1784C207.815 44.7476 212.361 45.8082 216.157 47.7443C219.947 49.6775 222.889 52.4287 223.997 56.3505L225.921 55.8069ZM203.998 42.1975C203.062 42.0673 202.123 41.946 201.181 41.8337L200.944 43.8197C201.873 43.9304 202.799 44.05 203.722 44.1784L203.998 42.1975Z" fill="#172A42" mask="url(#path-8-inside-1_2679_17608)"/>
<path fill-rule="evenodd" clip-rule="evenodd" d="M309.499 30.1323L313.366 17.6621H305.633L309.499 30.1323Z" fill="#E24329"/>
<path fill-rule="evenodd" clip-rule="evenodd" d="M309.501 30.1323L305.634 17.6621H300.215L309.501 30.1323Z" fill="#FC6D26"/>
<path fill-rule="evenodd" clip-rule="evenodd" d="M300.214 17.6621L299.039 21.4537C298.987 21.6221 298.987 21.8036 299.039 21.972C299.091 22.1405 299.193 22.2873 299.33 22.3914L309.5 30.1323L300.214 17.6621Z" fill="#FCA326"/>
<path fill-rule="evenodd" clip-rule="evenodd" d="M300.215 17.6624H305.634L303.305 10.157C303.185 9.77059 302.664 9.77059 302.544 10.157L300.215 17.6624Z" fill="#E24329"/>
<path fill-rule="evenodd" clip-rule="evenodd" d="M309.5 30.1323L313.367 17.6621H318.786L309.5 30.1323Z" fill="#FC6D26"/>
<path fill-rule="evenodd" clip-rule="evenodd" d="M318.786 17.6621L319.961 21.4502C320.013 21.6187 320.013 21.8001 319.961 21.9686C319.908 22.137 319.807 22.2839 319.67 22.388L309.5 30.1323L318.786 17.6621Z" fill="#FCA326"/>
<path fill-rule="evenodd" clip-rule="evenodd" d="M318.787 17.6619H313.367L315.696 10.1531C315.816 9.76669 316.338 9.76669 316.457 10.1531L318.787 17.6619Z" fill="#E24329"/>
<circle cx="20" cy="95" r="19.75" stroke="#172A42" stroke-width="0.5"/>
<g clip-path="url(#clip0_2679_17608)">
<path fill-rule="evenodd" clip-rule="evenodd" d="M29.0077 82.9961H11.0078C10.2122 82.9961 9.44909 83.3122 8.88649 83.8748C8.60746 84.1538 8.38622 84.4851 8.23545 84.8498C8.08467 85.2145 8.00731 85.6053 8.00781 85.9999V104C8.00781 104.795 8.32388 105.558 8.88649 106.121C9.44909 106.684 10.2122 107 11.0078 107H29.0077C29.8007 106.996 30.5598 106.678 31.1191 106.116C31.6785 105.554 31.9924 104.793 31.9924 104V86.0037C31.9924 85.2107 31.6785 84.4499 31.1191 83.8877C30.5598 83.3256 29.8007 83.0077 29.0077 83.0037V82.9961ZM18.4468 101.179C18.4428 101.558 18.2894 101.92 18.02 102.186C17.7505 102.453 17.3868 102.603 17.0078 102.603H12.5763C12.196 102.605 11.8303 102.456 11.5592 102.189C11.2881 101.922 11.1336 101.559 11.1296 101.179V87.5646C11.1291 87.3746 11.1662 87.1865 11.2388 87.0109C11.3114 86.8354 11.418 86.676 11.5525 86.5418C11.6869 86.4077 11.8467 86.3015 12.0224 86.2294C12.1981 86.1573 12.3864 86.1207 12.5763 86.1217H17.0078C17.3894 86.1217 17.7555 86.2733 18.0253 86.5432C18.2952 86.8131 18.4468 87.1791 18.4468 87.5608V101.179ZM28.8897 95.1788C28.8897 95.5604 28.738 95.9265 28.4682 96.1963C28.1983 96.4662 27.8322 96.6178 27.4506 96.6178H23.0077C22.6261 96.6178 22.26 96.4662 21.9901 96.1963C21.7203 95.9265 21.5686 95.5604 21.5686 95.1788V87.5646C21.5681 87.3753 21.605 87.1877 21.6771 87.0127C21.7492 86.8377 21.8551 86.6786 21.9888 86.5445C22.1225 86.4105 22.2813 86.3042 22.4561 86.2316C22.631 86.1591 22.8184 86.1217 23.0077 86.1217H27.4506C27.8322 86.1217 28.1983 86.2733 28.4682 86.5432C28.738 86.8131 28.8897 87.1791 28.8897 87.5608V95.1788Z" fill="url(#paint1_linear_2679_17608)"/>
</g>
<path d="M327.75 19.5C327.75 30.1376 319.349 38.75 309 38.75C298.651 38.75 290.25 30.1376 290.25 19.5C290.25 8.86236 298.651 0.25 309 0.25C319.349 0.25 327.75 8.86236 327.75 19.5Z" stroke="#172A42" stroke-width="0.5"/>
<circle cx="218" cy="152" r="19.75" stroke="#172A42" stroke-width="0.5"/>
<g clip-path="url(#clip1_2679_17608)">
<path d="M210.178 162.394L206 155.159L213.822 141.605L218 148.84L210.178 162.394Z" fill="#0DA960"/>
<path d="M210.178 162.394L214.356 155.159H229.999L225.821 162.394H210.178Z" fill="url(#paint2_radial_2679_17608)"/>
<path d="M230.001 155.159H221.644L213.822 141.605H222.179L230.001 155.159Z" fill="url(#paint3_radial_2679_17608)"/>
<path d="M217.999 155.16H214.356L216.169 152L210.178 162.394L217.999 155.16Z" fill="#2D6FDD"/>
<path d="M221.643 155.16H230L219.83 152L221.643 155.16Z" fill="#E5B93C"/>
<path d="M216.17 152L218.001 148.84L213.822 141.605L216.17 152Z" fill="#0C9B57"/>
</g>
<path d="M323.861 205H18V204H324L323.861 205Z" fill="#F0F0F0"/>
<path d="M269.136 195.921C270.478 200.877 275.077 203.946 275.077 203.946C275.077 203.946 277.499 198.98 276.156 194.025C274.814 189.069 270.215 186 270.215 186C270.215 186 267.793 190.966 269.136 195.921Z" fill="#505254"/>
<path d="M271.109 194.859C274.794 198.44 275.244 203.944 275.244 203.944C275.244 203.944 269.72 203.643 266.036 200.062C262.352 196.481 261.902 190.977 261.902 190.977C261.902 190.977 267.425 191.278 271.109 194.859Z" fill="#89CC29"/>
<path d="M283.977 121.822L280.051 122.257C280.051 122.257 278.306 130.098 280.051 140.552C281.796 151.007 283.977 161.461 283.977 161.461C283.977 161.461 285.722 195.438 286.595 195.873C287.467 196.309 295.32 198.923 295.756 196.309C296.192 193.695 296.192 134.019 296.192 134.019L302.3 162.768C302.3 162.768 303.172 198.923 304.917 198.923C306.662 198.923 312.333 198.487 312.333 195.438C312.333 192.389 313.642 152.314 313.642 152.314C313.642 152.314 313.206 122.693 311.461 121.822C309.716 120.951 283.977 121.822 283.977 121.822Z" fill="#36393D"/>
<path d="M287.879 194.624C287.879 194.624 283.743 194.164 282.824 194.624C281.905 195.085 280.526 198.306 282.824 200.146C285.122 201.987 291.096 204.748 292.935 204.748C294.773 204.748 296.611 203.828 296.611 203.828L295.692 196.005L287.879 194.624Z" fill="#36393D"/>
<path d="M304.135 196.851L304.609 203.396C304.609 203.396 310.775 204.331 311.249 203.396C311.723 202.461 316.466 200.123 316.94 199.656C317.415 199.188 317.889 194.046 315.043 193.579C312.198 193.111 311.249 194.514 311.249 194.514L304.135 196.851Z" fill="#36393D"/>
<path d="M315.057 69.9893C315.057 69.9893 324.594 63.8651 324.373 59.6577C324.153 55.4502 318.403 42.184 318.403 42.184C318.403 42.184 313.905 32.8462 312.117 36.6624C310.329 40.4786 314.467 44.5408 314.467 44.5408L317.138 57.5544L309.879 64.4694L315.057 69.9893Z" fill="#A0616A"/>
<path d="M291.395 61.2763C295.732 61.2763 299.248 57.7658 299.248 53.4355C299.248 49.1052 295.732 45.5947 291.395 45.5947C287.059 45.5947 283.543 49.1052 283.543 53.4355C283.543 57.7658 287.059 61.2763 291.395 61.2763Z" fill="#A0616A"/>
<path d="M287.469 58.2241L288.777 66.5005L298.375 64.7581C298.375 64.7581 297.939 56.4817 297.939 55.6105C297.939 54.7393 287.469 58.2241 287.469 58.2241Z" fill="#A0616A"/>
<path d="M287.033 66.5022C287.033 66.5022 297.939 63.8886 299.247 64.7598C300.556 65.631 307.1 66.5022 307.1 66.5022L314.516 77.8278L312.335 92.2025C312.335 92.2025 311.899 115.289 312.771 119.21C313.644 123.13 318.442 123.566 308.409 124.437C298.375 125.308 296.63 124.001 289.65 125.744C282.67 127.486 276.999 124.872 278.744 123.13C280.489 121.388 283.543 93.5093 280.053 90.8957C276.563 88.2821 275.254 74.7786 275.254 74.7786C275.254 74.7786 287.033 68.6802 287.033 66.5022Z" fill="#B0B2B5"/>
<path d="M305.791 67.8081L307.1 66.5013L309.717 63.8877C309.717 63.8877 318.224 67.5903 317.788 68.8971C317.352 70.2039 314.516 77.8268 314.516 77.8268L310.59 79.1336L305.791 67.8081Z" fill="#B0B2B5"/>
<path d="M294.136 43.9304L294.056 43.3022C293.522 43.2992 292.992 43.3825 292.484 43.5488C292.433 43.1701 292.466 42.7845 292.581 42.4201C292.066 42.5524 291.575 42.7656 291.127 43.0516L290.81 41.9053L286.449 44.0514C284.883 44.8217 283.233 45.6683 282.338 47.1644C281.34 48.8324 281.514 50.976 282.196 52.7955C282.878 54.6151 284.011 56.2253 284.919 57.9434C285.264 58.6821 285.679 59.3865 286.157 60.0469C287.803 62.096 291.007 62.5099 293.328 61.2733C294.185 60.8169 294.963 60.1347 295.316 59.2314C295.526 58.6912 295.575 58.1035 295.713 57.5404C296 56.3695 296.333 53.9525 297.285 53.2117C297.705 52.8858 298.535 53.9663 298.883 53.565C299.775 52.5334 299.588 50.9427 299.034 49.6968C298.502 48.4456 297.88 47.2344 297.173 46.0727C296.873 45.6057 294.127 43.855 294.136 43.9304Z" fill="#36393D"/>
<path d="M268.274 85.2354C268.274 85.2354 257.804 95.2541 259.113 100.481C260.422 105.708 270.892 120.954 270.892 120.954C270.892 120.954 280.926 126.182 282.234 120.954C283.543 115.727 275.254 117.034 275.254 117.034L268.711 101.352L276.127 90.8981L268.274 85.2354Z" fill="#A0616A"/>
<path d="M280.488 75.6485L275.253 74.7773C275.253 74.7773 271.327 79.1333 270.018 80.8757C268.709 82.6181 266.092 86.9741 266.092 86.9741L275.253 93.5081L282.233 86.1029L280.488 75.6485Z" fill="#B0B2B5"/>
<defs>
<linearGradient id="paint0_linear_2679_17608" x1="124" y1="104.96" x2="124" y2="140" gradientUnits="userSpaceOnUse">
<stop stop-color="#70A229" stop-opacity="0.8"/>
<stop offset="0.0003" stop-color="#70A229" stop-opacity="0.89"/>
<stop offset="0.536458" stop-color="#A2D45A" stop-opacity="0.8"/>
<stop offset="1" stop-color="#A2D45A" stop-opacity="0.9"/>
</linearGradient>
<linearGradient id="paint1_linear_2679_17608" x1="20.0077" y1="107.004" x2="20.0077" y2="82.9999" gradientUnits="userSpaceOnUse">
<stop offset="0.18" stop-color="#0052CC"/>
<stop offset="1" stop-color="#2684FF"/>
</linearGradient>
<radialGradient id="paint2_radial_2679_17608" cx="0" cy="0" r="1" gradientUnits="userSpaceOnUse" gradientTransform="translate(243.929 156.265) rotate(30.0005) scale(46.7689)">
<stop stop-color="#4387FD"/>
<stop offset="0.65" stop-color="#3078F0"/>
<stop offset="0.91" stop-color="#2B72EA"/>
<stop offset="1" stop-color="#286EE6"/>
</radialGradient>
<radialGradient id="paint3_radial_2679_17608" cx="0" cy="0" r="1" gradientUnits="userSpaceOnUse" gradientTransform="translate(243.932 156.266) rotate(30.0005) scale(46.7661)">
<stop stop-color="#FFD24D"/>
<stop offset="1" stop-color="#F6C338"/>
</radialGradient>
<clipPath id="clip0_2679_17608">
<rect width="24" height="24" fill="white" transform="translate(8 83)"/>
</clipPath>
<clipPath id="clip1_2679_17608">
<rect width="24" height="24" fill="white" transform="translate(206 140)"/>
</clipPath>
</defs>
</svg>
