<svg width="328" height="205" viewBox="0 0 328 205" fill="none" xmlns="http://www.w3.org/2000/svg">
<path d="M272.663 78.8244C272.998 78.8299 273.318 78.965 273.553 79.2007C273.788 79.4363 273.92 79.7536 273.92 80.0842C273.92 80.4147 273.788 80.732 273.553 80.9677C273.318 81.2033 272.998 81.3385 272.663 81.3439H212.416C212.248 81.3471 212.08 81.3175 211.924 81.2569C211.768 81.1963 211.625 81.1059 211.504 80.9908C211.383 80.8757 211.286 80.7382 211.219 80.5862C211.152 80.4342 211.116 80.2706 211.113 80.1049C211.111 79.9392 211.141 79.7746 211.203 79.6205C211.265 79.4664 211.357 79.3258 211.474 79.2069C211.591 79.0879 211.731 78.9929 211.885 78.9273C212.04 78.8617 212.206 78.8267 212.374 78.8244C212.388 78.8242 212.402 78.8242 212.416 78.8244H272.663Z" fill="#E6E6E6"/>
<path d="M272.662 67.3586C272.997 67.3641 273.317 67.4992 273.552 67.7349C273.787 67.9705 273.919 68.2878 273.919 68.6183C273.919 68.9489 273.787 69.2662 273.552 69.5018C273.317 69.7375 272.997 69.8726 272.662 69.8781H255.429C255.09 69.8827 254.764 69.7549 254.521 69.5226C254.278 69.2903 254.139 68.9725 254.133 68.639C254.127 68.3054 254.256 67.9833 254.491 67.7433C254.726 67.5032 255.048 67.3649 255.387 67.3586C255.401 67.3583 255.415 67.3583 255.429 67.3586H272.662Z" fill="#E6E6E6"/>
<path d="M272.663 90.6515C272.998 90.657 273.318 90.7922 273.553 91.0278C273.788 91.2635 273.92 91.5808 273.92 91.9113C273.92 92.2419 273.788 92.5592 273.553 92.7948C273.318 93.0305 272.998 93.1656 272.663 93.1711H212.416C212.248 93.1742 212.08 93.1447 211.924 93.0841C211.768 93.0235 211.625 92.933 211.504 92.8179C211.383 92.7028 211.286 92.5653 211.219 92.4133C211.152 92.2613 211.116 92.0978 211.113 91.9321C211.111 91.7663 211.141 91.6017 211.203 91.4476C211.265 91.2935 211.357 91.153 211.474 91.034C211.591 90.9151 211.731 90.8201 211.885 90.7545C212.04 90.6888 212.206 90.6538 212.374 90.6515C212.388 90.6513 212.402 90.6513 212.416 90.6515H272.663Z" fill="#E6E6E6"/>
<path d="M310.575 75.3652C313.262 75.3652 315.441 73.2175 315.441 70.5683C315.441 67.9191 313.262 65.7715 310.575 65.7715C307.888 65.7715 305.709 67.9191 305.709 70.5683C305.709 73.2175 307.888 75.3652 310.575 75.3652Z" fill="#A0616A"/>
<path d="M299.377 102.647L302.519 83.1458C302.686 82.109 303.076 81.1191 303.661 80.2421C304.246 79.365 305.014 78.6209 305.914 78.0592C306.814 77.4976 307.824 77.1312 308.879 76.9846C309.933 76.838 311.008 76.9144 312.03 77.2088C313.817 77.7184 315.347 78.8665 316.322 80.4289C317.296 81.9913 317.645 83.8557 317.3 85.658L314.013 103.074L299.377 102.647Z" fill="#89CC29"/>
<path d="M311.917 106.136C312.16 105.978 312.365 105.769 312.517 105.525C312.67 105.28 312.766 105.005 312.799 104.72C312.832 104.435 312.801 104.146 312.708 103.874C312.616 103.601 312.464 103.352 312.263 103.144L315.511 96.9434L311.853 97.3282L309.329 103.158C308.999 103.514 308.811 103.977 308.803 104.459C308.795 104.942 308.966 105.411 309.284 105.777C309.603 106.144 310.047 106.383 310.532 106.449C311.017 106.515 311.509 106.404 311.917 106.137L311.917 106.136Z" fill="#A0616A"/>
<path d="M312.615 102.046C312.435 102.021 312.267 101.943 312.134 101.821L310.891 100.689C310.757 100.566 310.664 100.406 310.626 100.229C310.587 100.053 310.604 99.8687 310.675 99.7022L313.159 93.8981L312.807 82.43C312.909 81.686 313.308 81.0128 313.914 80.5585C314.521 80.1042 315.286 79.9059 316.04 80.0074C316.795 80.1089 317.478 80.5018 317.939 81.0997C318.4 81.6975 318.601 82.4514 318.498 83.1954L319.1 90.4045C319.283 92.5924 318.654 94.7715 317.33 96.5363L313.456 101.699C313.382 101.798 313.287 101.881 313.178 101.941C313.069 102.002 312.948 102.039 312.823 102.051C312.754 102.057 312.684 102.056 312.615 102.046Z" fill="#89CC29"/>
<path d="M282.554 67.9518C282.607 68.2341 282.722 68.5015 282.892 68.7352C283.061 68.9689 283.28 69.1632 283.533 69.3044C283.787 69.4455 284.069 69.5302 284.359 69.5523C284.65 69.5745 284.941 69.5336 285.214 69.4326L289.74 74.7991L290.807 71.3282L286.345 66.7641C286.142 66.3253 285.782 65.9752 285.335 65.7797C284.887 65.5842 284.383 65.557 283.916 65.7031C283.45 65.8493 283.054 66.1587 282.803 66.5729C282.552 66.9872 282.464 67.4777 282.554 67.9518H282.554Z" fill="#A0616A"/>
<path d="M286.097 70.1821C286.191 70.0288 286.329 69.9072 286.495 69.8334L288.037 69.1467C288.204 69.0727 288.39 69.0511 288.57 69.0848C288.75 69.1186 288.916 69.206 289.043 69.3352L293.497 73.853L304.347 78.0044C304.671 78.1942 304.955 78.4452 305.181 78.7429C305.407 79.0407 305.571 79.3795 305.664 79.74C305.758 80.1004 305.778 80.4754 305.724 80.8435C305.67 81.2117 305.543 81.5658 305.35 81.8855C305.158 82.2053 304.903 82.4845 304.601 82.7072C304.299 82.9299 303.955 83.0917 303.589 83.1833C303.223 83.275 302.843 83.2947 302.47 83.2413C302.096 83.188 301.737 83.0627 301.413 82.8725L294.444 80.6085C292.329 79.9217 290.538 78.5009 289.406 76.6103L286.094 71.0812C286.031 70.9749 285.991 70.8565 285.976 70.7339C285.962 70.6112 285.974 70.487 286.012 70.3693C286.033 70.3039 286.062 70.2411 286.098 70.1823L286.097 70.1821Z" fill="#89CC29"/>
<path opacity="0.1" d="M314.52 87.2002L314.321 93.4499L310.672 99.7022L313.719 92.7351L314.52 87.2002Z" fill="#202021"/>
<path d="M307.279 68.1694C307.781 68.755 308.63 68.9201 309.414 68.9879C311.005 69.1255 313.319 68.9027 314.874 68.5484C314.985 69.6089 314.683 70.7522 315.316 71.6246C315.613 70.5685 315.786 69.4822 315.831 68.3871C315.85 67.9182 315.842 67.4317 315.649 67.0005C315.455 66.5694 315.033 66.2035 314.547 66.1997C314.908 65.9295 315.331 65.7512 315.779 65.6804L314.239 64.9178L314.635 64.5176L311.848 64.3495L312.655 63.8439C311.44 63.6795 310.211 63.6414 308.988 63.7303C308.42 63.7715 307.826 63.8503 307.366 64.1747C306.906 64.4992 306.64 65.1439 306.925 65.6202C306.568 65.6781 306.231 65.825 305.947 66.0471C305.663 66.2692 305.441 66.5591 305.303 66.8893C305.098 67.402 305.117 67.9715 305.18 68.5179C305.285 69.3917 305.491 70.2508 305.794 71.0785" fill="#36393D"/>
<path d="M326.238 56.7275H282.519C282.051 56.7277 281.603 56.9109 281.272 57.2367C280.942 57.5626 280.756 58.0045 280.756 58.4654V101.564C280.756 102.025 280.942 102.467 281.272 102.793C281.603 103.119 282.051 103.302 282.519 103.302H326.238C326.706 103.302 327.154 103.119 327.484 102.793C327.815 102.467 328.001 102.025 328.001 101.564V58.4654C328.001 58.0045 327.815 57.5626 327.484 57.2367C327.154 56.9109 326.706 56.7277 326.238 56.7275ZM327.296 101.564C327.295 101.841 327.183 102.105 326.985 102.301C326.787 102.496 326.518 102.606 326.238 102.607H282.519C282.238 102.606 281.97 102.496 281.772 102.301C281.574 102.105 281.462 101.841 281.461 101.564V58.4654C281.462 58.1891 281.574 57.9244 281.772 57.729C281.97 57.5336 282.238 57.4235 282.519 57.4227H326.238C326.518 57.4235 326.787 57.5336 326.985 57.729C327.183 57.9244 327.295 58.1891 327.296 58.4654V101.564Z" fill="#172A42"/>
<path d="M312.937 58.64L247.911 73.387C247.592 73.4591 247.257 73.4037 246.979 73.2332C246.701 73.0626 246.503 72.7908 246.429 72.4773L242.705 56.6323C242.632 56.3186 242.688 55.9891 242.862 55.7162C243.035 55.4432 243.312 55.2491 243.631 55.1763L308.657 40.4293C308.976 40.3572 309.311 40.4126 309.589 40.5831C309.867 40.7537 310.065 41.0255 310.139 41.3391L313.863 57.1841C313.936 57.4978 313.88 57.8272 313.706 58.1001C313.532 58.3731 313.256 58.5672 312.937 58.64Z" fill="white"/>
<path d="M266.245 55.4449C266.138 55.4691 266.036 55.514 265.947 55.5769C265.857 55.6398 265.781 55.7196 265.722 55.8116C265.663 55.9036 265.624 56.0062 265.606 56.1133C265.587 56.2204 265.59 56.3301 265.615 56.436C265.64 56.5419 265.685 56.642 265.749 56.7306C265.813 56.8191 265.893 56.8944 265.987 56.9522C266.08 57.0099 266.184 57.0489 266.293 57.067C266.401 57.0851 266.512 57.0819 266.62 57.0576L266.623 57.057L305.139 48.2843C305.355 48.2347 305.543 48.1024 305.66 47.9164C305.778 47.7305 305.816 47.5061 305.766 47.2925C305.716 47.079 305.582 46.8937 305.394 46.7774C305.205 46.6611 304.978 46.6233 304.761 46.6723L266.245 55.4449Z" fill="#E6E6E6"/>
<path d="M267.305 60.3736C267.197 60.3968 267.095 60.4399 267.005 60.5003C266.915 60.5607 266.838 60.6373 266.779 60.7257C266.72 60.814 266.681 60.9125 266.662 61.0153C266.644 61.1182 266.647 61.2235 266.672 61.3252C266.696 61.4269 266.742 61.523 266.806 61.608C266.87 61.693 266.951 61.7653 267.045 61.8208C267.139 61.8762 267.243 61.9136 267.352 61.931C267.461 61.9484 267.573 61.9453 267.681 61.922L267.684 61.9214L284.33 58.2969C284.548 58.2499 284.737 58.1232 284.856 57.9447C284.974 57.7663 285.013 57.5507 284.963 57.3455C284.913 57.1402 284.779 56.962 284.59 56.85C284.401 56.7381 284.172 56.7016 283.954 56.7485L283.952 56.7491L267.305 60.3736Z" fill="#E6E6E6"/>
<path d="M255.771 66.2586C258.551 66.2586 260.805 64.0367 260.805 61.2958C260.805 58.5549 258.551 56.333 255.771 56.333C252.99 56.333 250.736 58.5549 250.736 61.2958C250.736 64.0367 252.99 66.2586 255.771 66.2586Z" fill="#89CC29"/>
<path d="M255.629 64.1617C255.465 64.1994 255.292 64.1834 255.137 64.1159L255.128 64.1117L253.102 63.2051C253.008 63.1631 252.923 63.1032 252.853 63.0289C252.782 62.9546 252.727 62.8673 252.691 62.772C252.654 62.6767 252.638 62.5753 252.641 62.4736C252.645 62.3718 252.668 62.2718 252.711 62.1791C252.754 62.0864 252.815 62.003 252.89 61.9335C252.966 61.8641 253.054 61.81 253.151 61.7743C253.248 61.7387 253.351 61.7222 253.454 61.7257C253.557 61.7293 253.659 61.7529 253.752 61.7952L255.065 62.3843L256.906 58.3956C256.993 58.2088 257.151 58.0635 257.346 57.9915C257.54 57.9196 257.756 57.9269 257.946 58.0118L257.935 58.0379L257.946 58.0117C258.136 58.0969 258.283 58.2527 258.356 58.4448C258.429 58.637 258.422 58.8498 258.336 59.0366L256.17 63.7288C256.12 63.8369 256.045 63.9322 255.951 64.0072C255.858 64.0822 255.748 64.1349 255.63 64.1613L255.629 64.1617Z" fill="white"/>
<g clip-path="url(#clip0_2679_17732)">
<path d="M177.823 181.211L180.834 169.954C186.691 168.308 192.859 168.125 198.802 169.423C189.148 174.321 187.309 187.514 179.774 195.319C177.405 197.735 174.527 199.583 171.353 200.727C168.178 201.871 164.788 202.281 161.435 201.927L153.668 204.613C153.892 199.137 155.292 193.775 157.772 188.897C160.252 184.019 163.753 179.74 168.033 176.355C170.454 174.48 173.099 172.919 175.906 171.709C176.584 176.423 177.823 181.211 177.823 181.211Z" fill="#F2F2F2"/>
<path d="M37.071 165.205L31.9895 146.206C22.1041 143.427 11.6943 143.12 1.66406 145.31C17.9579 153.577 21.0623 175.842 33.779 189.015C37.7765 193.093 42.6342 196.213 47.9922 198.144C53.3501 200.075 59.071 200.767 64.7307 200.169L77.8397 204.701C77.4622 195.46 75.0992 186.411 70.9136 178.177C66.7279 169.944 60.8192 162.722 53.5944 157.009C49.5097 153.844 45.0455 151.21 40.3071 149.169C39.1623 157.124 37.071 165.205 37.071 165.205Z" fill="#F2F2F2"/>
<path d="M168.297 48.708V17.8562C168.297 13.1204 166.428 8.57864 163.102 5.22995C159.776 1.88127 155.265 0 150.561 0H85.6397C80.936 8.94775e-07 76.4249 1.88128 73.0989 5.22996C69.7728 8.57864 67.9043 13.1204 67.9043 17.8562V187.112C67.9043 191.847 69.7728 196.389 73.0989 199.738C76.4249 203.087 80.936 204.968 85.6397 204.968H150.561C155.265 204.968 159.776 203.087 163.102 199.738C166.428 196.389 168.297 191.847 168.297 187.112V70.6689C168.444 70.6689 168.589 70.6397 168.725 70.5831C168.861 70.5265 168.984 70.4436 169.088 70.339C169.192 70.2344 169.274 70.1103 169.33 69.9736C169.386 69.837 169.415 69.6906 169.415 69.5427V49.8342C169.415 49.5355 169.298 49.2491 169.088 49.0379C168.878 48.8267 168.594 48.708 168.297 48.708Z" fill="#172A42"/>
<path d="M164.521 17.9789V186.99C164.521 190.501 163.146 193.87 160.693 196.365C158.241 198.86 154.909 200.281 151.423 200.317C151.375 200.322 151.326 200.324 151.278 200.323H86.0401C82.5279 200.323 79.1596 198.918 76.6761 196.418C74.1926 193.917 72.7972 190.526 72.7969 186.99V17.9789C72.7972 14.4428 74.1926 11.0515 76.6761 8.55112C79.1596 6.0507 82.5279 4.64584 86.0401 4.64551H93.957C93.5678 5.60778 93.4195 6.65161 93.5251 7.68515C93.6307 8.71869 93.9869 9.71027 94.5625 10.5726C95.1381 11.435 95.9154 12.1417 96.826 12.6306C97.7366 13.1195 98.7525 13.3756 99.7845 13.3763H136.978C138.009 13.3735 139.023 13.1159 139.933 12.6263C140.842 12.1367 141.618 11.43 142.192 10.5681C142.767 9.7062 143.123 8.71552 143.229 7.68292C143.335 6.65032 143.187 5.60736 142.799 4.64551H151.278C154.79 4.64583 158.158 6.0507 160.642 8.55112C163.125 11.0515 164.521 14.4428 164.521 17.9789Z" fill="white"/>
<path d="M68.2617 65.9674C67.8614 65.967 67.4777 65.8067 67.1947 65.5217C66.9116 65.2368 66.7524 64.8504 66.752 64.4474V54.1115C66.7525 53.7088 66.9119 53.3227 67.1949 53.0382C67.478 52.7536 67.8617 52.5938 68.2617 52.5938C68.6617 52.5938 69.0453 52.7536 69.3284 53.0382C69.6115 53.3227 69.7708 53.7088 69.7714 54.1115V64.4475C69.7709 64.8504 69.6117 65.2368 69.3287 65.5217C69.0457 65.8067 68.6619 65.967 68.2617 65.9674Z" fill="#172A42"/>
<path d="M67.9609 45.9039C67.5606 45.9035 67.1769 45.7432 66.8939 45.4582C66.6109 45.1733 66.4516 44.7869 66.4512 44.384V34.048C66.4518 33.6453 66.6111 33.2592 66.8942 32.9747C67.1772 32.6901 67.5609 32.5303 67.9609 32.5303C68.3609 32.5303 68.7446 32.6901 69.0276 32.9747C69.3107 33.2592 69.47 33.6453 69.4706 34.048V44.384C69.4701 44.7869 69.3109 45.1733 69.0279 45.4582C68.7449 45.7432 68.3611 45.9035 67.9609 45.9039Z" fill="#172A42"/>
<path d="M108.119 6.38426C108.12 5.98127 108.279 5.59493 108.562 5.30998C108.845 5.02503 109.229 4.86473 109.629 4.86426H119.895C120.295 4.86486 120.678 5.02527 120.961 5.31026C121.244 5.59524 121.402 5.98152 121.402 6.38426C121.402 6.78699 121.244 7.17326 120.961 7.45825C120.678 7.74324 120.295 7.90365 119.895 7.90425H109.629C109.229 7.90377 108.845 7.74348 108.562 7.45853C108.279 7.17358 108.12 6.78724 108.119 6.38426Z" fill="white"/>
<path d="M68.2617 83.5993C67.8614 83.5988 67.4777 83.4385 67.1947 83.1536C66.9116 82.8686 66.7524 82.4823 66.752 82.0793V71.7433C66.7525 71.3406 66.9119 70.9546 67.1949 70.67C67.478 70.3854 67.8617 70.2256 68.2617 70.2256C68.6617 70.2256 69.0453 70.3854 69.3284 70.67C69.6115 70.9546 69.7708 71.3406 69.7714 71.7433V82.0793C69.7709 82.4823 69.6117 82.8686 69.3287 83.1536C69.0457 83.4385 68.6619 83.5988 68.2617 83.5993Z" fill="#172A42"/>
<path d="M125.631 7.90424C126.465 7.90424 127.141 7.22372 127.141 6.38425C127.141 5.54478 126.465 4.86426 125.631 4.86426C124.797 4.86426 124.121 5.54478 124.121 6.38425C124.121 7.22372 124.797 7.90424 125.631 7.90424Z" fill="white"/>
<path d="M111.571 193.769L115.634 193.768L117.567 177.989H111.57L111.571 193.769Z" fill="#9E616A"/>
<path d="M110.535 192.433L111.679 192.433L116.144 190.604L118.537 192.432H118.537C119.89 192.433 121.187 192.973 122.143 193.936C123.1 194.899 123.637 196.205 123.637 197.567V197.733L110.535 197.734L110.535 192.433Z" fill="#2F2E41"/>
<path d="M130.448 193.769L134.511 193.768L136.444 177.989H130.447L130.448 193.769Z" fill="#9E616A"/>
<path d="M129.412 192.433L130.556 192.433L135.021 190.604L137.414 192.432H137.414C138.767 192.433 140.064 192.973 141.02 193.936C141.977 194.899 142.514 196.205 142.514 197.567V197.733L129.412 197.734L129.412 192.433Z" fill="#2F2E41"/>
<path d="M133.696 107.416L101.771 108.255L102.327 123.906C102.327 123.906 101.771 128.099 102.882 129.217C103.992 130.335 104.548 130.335 103.992 132.291C103.437 134.248 106.371 137.443 106.014 137.802C105.658 138.161 104.825 140.117 104.825 140.117L107.601 156.048C107.601 156.048 109.544 183.718 110.1 184.277C110.655 184.836 111.21 184.277 110.655 185.675C110.1 187.072 109.544 186.513 110.1 187.072C110.591 187.606 111.055 188.166 111.488 188.749H118.199C118.199 188.749 118.705 185.954 118.705 185.675C118.705 185.395 119.261 183.718 119.261 183.439C119.261 183.159 118.77 182.665 118.77 182.665C118.6 182.097 118.486 181.514 118.428 180.923C118.428 180.364 116.762 158.843 116.762 158.843L120.093 130.894L128.144 158.284C128.144 158.284 128.144 182.321 128.699 182.88C129.254 183.439 129.254 183.159 128.977 184.277C128.699 185.395 127.589 185.116 128.422 185.954C129.254 186.793 129.532 185.395 129.254 186.793L128.977 188.19L137.305 188.31C137.305 188.31 138.415 185.954 137.86 185.116C137.305 184.277 137.338 184.506 138.016 183.134C138.693 181.762 138.971 181.482 138.693 181.203C138.415 180.923 138.415 179.437 138.415 179.437L137.027 152.694C137.027 152.694 136.75 124.465 136.75 123.627C136.729 123.195 136.808 122.765 136.98 122.369V121.231L135.917 117.198L133.696 107.416Z" fill="#2F2E41"/>
<path d="M108.721 51.2819C113.474 51.2819 117.327 47.4027 117.327 42.6175C117.327 37.8323 113.474 33.9531 108.721 33.9531C103.968 33.9531 100.115 37.8323 100.115 42.6175C100.115 47.4027 103.968 51.2819 108.721 51.2819Z" fill="#9E616A"/>
<path d="M104.81 48.511L104.462 48.23C104.456 48.2247 103.795 47.6966 103.164 47.789C103.02 47.8131 102.883 47.8676 102.761 47.949C102.64 48.0305 102.537 48.1369 102.459 48.2613C102.415 48.3297 102.351 48.3834 102.277 48.4154C102.202 48.4474 102.12 48.4563 102.04 48.441C101.221 48.3112 99.7429 45.872 98.9981 43.4219C98.5387 41.9109 97.9973 39.173 99.4888 37.714C99.6043 37.0534 100.794 31.0991 106.024 30.9337C111.405 30.7614 114.988 31.8554 115.852 33.9292C115.999 34.2821 116.147 34.6974 116.293 35.1636C116.367 35.391 116.376 35.6349 116.318 35.8671C116.26 36.0994 116.139 36.3104 115.967 36.4759C115.811 36.6285 115.62 36.7399 115.411 36.7999C115.201 36.86 114.981 36.8669 114.768 36.82C114.742 37.0862 114.673 37.3463 114.563 37.5899C114.093 38.6159 112.91 39.2854 111.549 39.2958C110.742 39.2839 109.944 39.1288 109.191 38.8378L111.368 40.5242L106.165 39.8725L107.87 40.7899L107.528 40.9532C106.469 41.426 105.595 42.239 105.043 43.265C104.491 44.2911 104.292 45.4724 104.477 46.6243L104.81 48.511Z" fill="#2F2E41"/>
<path d="M132.128 103.274C133.339 101.169 132.186 98.1274 132.186 98.1274C132.186 98.1274 135.318 93.4641 134.549 91.475L130.86 62.6946C130.86 62.6946 129.707 59.5988 127.017 58.0509C126.279 57.6262 122.404 57.7931 121.554 57.8002L118.794 56.6122C118.634 57.2016 115.624 51.0578 115.608 51.6688C113.686 51.6688 112.449 51.9358 109.458 52.4427C104.266 53.3236 106.882 58.0467 107.211 58.6043C107.079 58.613 106.947 58.6314 106.818 58.6593C106.141 58.7871 103.835 60.7955 103.835 60.7955L99.7107 64.4834C93.4956 69.3941 94.887 77.0564 94.887 77.0564L103.95 86.2394L99.9798 104.663C99.9798 104.663 101.667 107.399 100.795 108.626C99.9221 109.853 108.482 109.501 108.482 109.501C114.39 112.152 135.203 109.911 135.203 109.911C134.914 109.152 132.128 103.274 132.128 103.274Z" fill="#E6E6E6"/>
<path d="M150.158 196.197C150.158 197.948 150.104 199.684 149.994 201.406C149.946 201.412 149.898 201.414 149.85 201.413H84.614C81.6624 201.413 78.7954 200.42 76.4679 198.593C74.1404 196.765 72.4858 194.207 71.7665 191.325C71.6404 190.822 71.5453 190.312 71.4817 189.797C71.4075 189.228 71.3706 188.654 71.3711 188.08V112.761C76.3907 113.011 81.3774 113.72 86.2694 114.879C86.7486 114.991 87.2244 115.109 87.6969 115.23C87.727 115.237 87.7572 115.247 87.7873 115.254C88.2665 115.375 88.7424 115.504 89.2148 115.635C99.2999 118.424 108.767 123.117 117.111 129.464C117.591 129.825 118.066 130.196 118.539 130.571L118.629 130.642C119.42 131.269 120.199 131.912 120.965 132.571C121.136 132.717 121.307 132.865 121.474 133.017C121.886 133.374 122.299 133.739 122.701 134.106C131.599 142.171 138.663 152.075 143.41 163.141C143.567 163.502 143.718 163.866 143.869 164.231C143.929 164.379 143.989 164.528 144.05 164.676C144.107 164.811 144.16 164.946 144.214 165.081C148.153 174.975 150.171 185.538 150.158 196.197Z" fill="#172A42"/>
<path opacity="0.2" d="M120.057 188.707C120.057 185.552 120.674 182.426 121.873 179.511C123.073 176.595 124.831 173.945 127.047 171.714C129.264 169.482 131.895 167.712 134.791 166.505C137.687 165.297 140.791 164.676 143.926 164.676H144.05C143.99 164.528 143.929 164.379 143.869 164.231C143.718 163.867 143.567 163.502 143.41 163.141H120.057V133.017H121.475C121.307 132.865 121.136 132.717 120.965 132.572C120.198 131.914 119.419 131.27 118.63 130.642L118.539 130.571V131.482H89.2151V115.635C88.7426 115.504 88.2668 115.376 87.7876 115.254C87.7574 115.247 87.7273 115.237 87.6971 115.23V131.482H72.7988V133.017H87.6971V163.141H72.7988V164.676H87.6971V188.707H72.9094C72.973 189.222 73.0681 189.733 73.1942 190.236H87.6971V200.323H89.2151V190.236H118.539V200.323H120.057V190.236H145.642V188.707H120.057ZM118.539 188.707H89.2151V164.676H118.539V188.707ZM118.539 163.141H89.2151V162.541C89.2151 154.71 92.3046 147.201 97.804 141.664C103.303 136.127 110.762 133.017 118.539 133.017V163.141Z" fill="#202021"/>
<path d="M102.433 123.776C102.131 123.435 101.908 123.032 101.778 122.595C101.648 122.158 101.615 121.697 101.681 121.246C101.747 120.794 101.91 120.363 102.16 119.982C102.409 119.601 102.739 119.28 103.125 119.041L99.2148 103.566L104.56 105.629L107.531 120.242C107.887 120.921 107.983 121.709 107.8 122.454C107.618 123.2 107.17 123.853 106.541 124.289C105.913 124.724 105.148 124.913 104.39 124.818C103.633 124.724 102.937 124.353 102.433 123.776Z" fill="#9E616A"/>
<path d="M95.2373 74.1143L94.7544 80.2937C94.7544 80.2937 94.1542 87.0826 94.3114 88.338C94.4686 89.5934 94.7612 97.2599 94.7612 97.2599L99.8496 107.395L105.615 105.847L105.27 101.092L105.615 105.46L106.384 101.59L104.462 95.0112L105.615 92.6893L105.034 84.8951L95.2373 74.1143Z" fill="#E6E6E6"/>
<path d="M227.816 115.809C227.138 114.999 226.175 114.482 225.127 114.368C224.979 114.352 224.829 114.343 224.679 114.343L147.404 114.271C146.845 114.269 146.291 114.382 145.777 114.604C145.263 114.826 144.8 115.152 144.416 115.562C143.676 116.371 143.272 117.435 143.286 118.535L143.274 131.174C143.268 133.463 143.761 135.727 144.718 137.804C144.184 139.843 143.291 141.768 142.083 143.489C141.707 144.035 141.491 144.676 141.461 145.339C141.43 146.002 141.587 146.661 141.911 147.239C142.236 147.817 142.716 148.291 143.296 148.606C143.876 148.922 144.533 149.066 145.191 149.022C146.006 148.972 146.817 148.879 147.622 148.744C149.965 148.375 152.2 147.498 154.174 146.174C155.692 146.656 157.275 146.901 158.867 146.902L213.204 146.953C215.253 146.96 217.283 146.557 219.176 145.768C221.07 144.978 222.788 143.817 224.232 142.353C227.173 139.33 228.808 135.258 228.778 131.026L228.79 118.621C228.807 117.597 228.462 116.601 227.816 115.809Z" fill="#C4E594"/>
<path d="M207.627 125.739L164.437 125.699C164.313 125.699 164.191 125.674 164.077 125.627C163.963 125.579 163.86 125.509 163.773 125.421C163.685 125.333 163.616 125.229 163.569 125.114C163.522 124.999 163.498 124.876 163.498 124.752C163.498 124.628 163.523 124.505 163.57 124.39C163.617 124.275 163.687 124.171 163.774 124.083C163.861 123.995 163.965 123.926 164.079 123.878C164.193 123.831 164.315 123.807 164.439 123.807L207.629 123.847C207.878 123.847 208.117 123.947 208.293 124.125C208.469 124.303 208.568 124.543 208.567 124.794C208.567 125.045 208.468 125.286 208.292 125.463C208.115 125.64 207.876 125.74 207.627 125.739Z" fill="white"/>
<path d="M207.621 131.547L164.431 131.507C164.308 131.506 164.185 131.482 164.071 131.434C163.958 131.386 163.854 131.317 163.767 131.229C163.68 131.141 163.611 131.036 163.563 130.922C163.516 130.807 163.492 130.684 163.492 130.56C163.492 130.435 163.517 130.312 163.564 130.198C163.611 130.083 163.681 129.979 163.768 129.891C163.855 129.803 163.959 129.733 164.073 129.686C164.187 129.638 164.309 129.614 164.433 129.614L207.623 129.655C207.872 129.655 208.111 129.755 208.287 129.933C208.463 130.11 208.562 130.351 208.562 130.602C208.561 130.853 208.462 131.093 208.286 131.271C208.109 131.448 207.87 131.547 207.621 131.547H207.621Z" fill="white"/>
<path d="M169.458 137.318L164.425 137.313C164.302 137.313 164.18 137.288 164.066 137.241C163.952 137.193 163.848 137.123 163.761 137.035C163.674 136.947 163.605 136.843 163.558 136.728C163.51 136.613 163.486 136.49 163.486 136.366C163.486 136.242 163.511 136.119 163.558 136.004C163.606 135.889 163.675 135.785 163.762 135.697C163.85 135.61 163.953 135.54 164.067 135.493C164.181 135.445 164.304 135.421 164.427 135.421L169.46 135.426C169.709 135.426 169.948 135.526 170.123 135.704C170.299 135.881 170.398 136.122 170.397 136.373C170.397 136.623 170.298 136.864 170.122 137.041C169.946 137.218 169.707 137.318 169.458 137.318Z" fill="white"/>
<path d="M1.07333 66.8904C1.75229 66.0797 2.7153 65.5634 3.7624 65.4488C3.91128 65.4326 4.06092 65.4244 4.21068 65.4243L81.4855 65.3516C82.0449 65.3496 82.5987 65.4631 83.1127 65.6852C83.6268 65.9073 84.0901 66.2332 84.4741 66.6428C85.214 67.4524 85.6182 68.5162 85.604 69.6163L85.6157 82.2546C85.6217 84.5445 85.1288 86.8078 84.1719 88.8852C84.7059 90.9236 85.5984 92.8491 86.8071 94.5705C87.1832 95.1159 87.3988 95.757 87.4291 96.4203C87.4594 97.0835 87.3033 97.7419 86.9787 98.3198C86.654 98.8976 86.174 99.3716 85.5938 99.6871C85.0135 100.003 84.3567 100.147 83.6987 100.103C82.8842 100.053 82.0728 99.9598 81.2678 99.825C78.9249 99.4556 76.6895 98.579 74.7157 97.2555C73.1974 97.7366 71.615 97.9818 70.0233 97.9827L15.6862 98.0337C13.6369 98.0413 11.6066 97.6385 9.7133 96.8488C7.82002 96.0592 6.10159 94.8984 4.65796 93.434C1.71649 90.411 0.082179 86.3392 0.111742 82.1074L0.100217 69.7019C0.083103 68.6782 0.428011 67.6817 1.07333 66.8904Z" fill="#C4E594"/>
<path d="M20.3223 75.8743C20.3223 75.6235 20.4212 75.3829 20.5972 75.2054C20.7732 75.0279 21.012 74.9279 21.2611 74.9273L64.451 74.8867C64.7002 74.8865 64.9394 74.9859 65.1157 75.1632C65.2921 75.3405 65.3914 75.581 65.3916 75.832C65.3918 76.0829 65.293 76.3236 65.117 76.5012C64.9409 76.6788 64.702 76.7787 64.4528 76.779L21.2629 76.8196C21.0137 76.8195 20.7748 76.72 20.5985 76.5428C20.4221 76.3656 20.3228 76.1252 20.3223 75.8743Z" fill="white"/>
<path d="M20.3281 81.6819C20.3282 81.4311 20.4271 81.1905 20.6031 81.013C20.7791 80.8355 21.0178 80.7355 21.267 80.7349L64.4569 80.6943C64.7061 80.6941 64.9452 80.7936 65.1216 80.9708C65.298 81.1481 65.3972 81.3886 65.3974 81.6396C65.3977 81.8905 65.2989 82.1312 65.1228 82.3088C64.9468 82.4864 64.7078 82.5863 64.4586 82.5866L21.2687 82.6272C21.0196 82.6271 20.7806 82.5275 20.6043 82.3503C20.428 82.1731 20.3287 81.9328 20.3281 81.6819Z" fill="white"/>
<path d="M58.4902 87.4537C58.4903 87.2029 58.5892 86.9623 58.7652 86.7848C58.9412 86.6072 59.1799 86.5072 59.4291 86.5067L64.4622 86.502C64.7114 86.5017 64.9506 86.6012 65.127 86.7784C65.3033 86.9557 65.4026 87.1963 65.4028 87.4472C65.403 87.6981 65.3043 87.9389 65.1282 88.1164C64.9521 88.294 64.7132 88.394 64.464 88.3942L59.4308 88.3989C59.1817 88.3988 58.9428 88.2993 58.7664 88.1221C58.5901 87.9449 58.4908 87.7045 58.4902 87.4537Z" fill="white"/>
<path d="M156.714 37.6372C156.284 37.8543 155.906 38.1638 155.607 38.544C155.308 38.9241 155.095 39.3656 154.984 39.8374C154.873 40.3092 154.866 40.7998 154.964 41.2745C155.061 41.7493 155.261 42.1968 155.549 42.5855L148.979 52.3397L155.061 52.419L160.368 43.1441C160.984 42.6138 161.386 41.8743 161.497 41.0657C161.608 40.257 161.421 39.4355 160.971 38.7567C160.52 38.0779 159.838 37.589 159.054 37.3827C158.269 37.1764 157.437 37.2669 156.714 37.6372V37.6372Z" fill="#9E616A"/>
<path d="M158.801 46.8354L148.679 65.5745L148.588 65.5805C148.514 65.5855 145.294 65.8 141.36 66.015C140.697 66.0513 140.306 67.236 139.614 67.2713C139.137 67.2956 137.377 69.5226 136.896 69.5457C132.609 69.7508 130.15 71.7234 128.519 71.5699C126.307 71.3845 123.362 65.2607 121.756 63.7199L121.718 63.6795L121.712 63.6245C121.6 62.5007 121.871 61.3719 122.481 60.4242C123.092 59.4765 124.005 58.7664 125.069 58.4111C130.22 56.7233 135.689 56.2637 141.046 57.0687L144.093 57.5302L153.341 45.0244L158.801 46.8354Z" fill="#E6E6E6"/>
<path d="M213.408 10.5486C212.729 9.73789 211.766 9.22161 210.719 9.10698C210.57 9.09076 210.421 9.08257 210.271 9.08244L132.996 9.00979C132.437 9.0078 131.883 9.12135 131.369 9.34344C130.855 9.56553 130.392 9.89142 130.008 10.301C129.268 11.1106 128.863 12.1744 128.878 13.2745L128.866 25.9128C128.86 28.2027 129.353 30.4661 130.31 32.5434C129.776 34.5818 128.883 36.5073 127.675 38.2287C127.298 38.7741 127.083 39.4152 127.053 40.0785C127.022 40.7417 127.178 41.4001 127.503 41.978C127.828 42.5559 128.308 43.0298 128.888 43.3453C129.468 43.6608 130.125 43.8051 130.783 43.7616C131.597 43.711 132.409 43.618 133.214 43.4832C135.557 43.1138 137.792 42.2372 139.766 40.9138C141.284 41.3949 142.867 41.6401 144.458 41.6409L198.795 41.6919C200.845 41.6995 202.875 41.2967 204.768 40.5071C206.662 39.7174 208.38 38.5566 209.824 37.0922C212.765 34.0692 214.4 29.9974 214.37 25.7656L214.381 13.3601C214.399 12.3364 214.054 11.3399 213.408 10.5486Z" fill="#C4E594"/>
<path d="M193.217 20.4777L150.027 20.4372C149.903 20.437 149.781 20.4124 149.667 20.3648C149.553 20.3171 149.45 20.2474 149.363 20.1594C149.275 20.0715 149.206 19.9671 149.159 19.8523C149.112 19.7375 149.088 19.6144 149.088 19.4902C149.088 19.3659 149.112 19.2429 149.16 19.1282C149.207 19.0134 149.276 18.9092 149.364 18.8214C149.451 18.7336 149.555 18.664 149.669 18.6166C149.783 18.5692 149.905 18.5448 150.028 18.5449L193.218 18.5855C193.468 18.5858 193.707 18.6857 193.883 18.8633C194.059 19.0409 194.157 19.2816 194.157 19.5325C194.157 19.7834 194.058 20.024 193.881 20.2013C193.705 20.3785 193.466 20.478 193.217 20.4777Z" fill="white"/>
<path d="M193.211 26.2854L150.021 26.2448C149.772 26.2445 149.533 26.1446 149.357 25.967C149.181 25.7894 149.082 25.5487 149.082 25.2978C149.082 25.0468 149.181 24.8063 149.358 24.629C149.534 24.4518 149.773 24.3523 150.023 24.3525L193.213 24.3931C193.462 24.3934 193.701 24.4933 193.877 24.6709C194.053 24.8485 194.152 25.0892 194.151 25.3401C194.151 25.5911 194.052 25.8316 193.875 26.0089C193.699 26.1862 193.46 26.2856 193.211 26.2854H193.211Z" fill="white"/>
<path d="M155.05 32.0571L150.017 32.0524C149.894 32.0523 149.771 32.0277 149.657 31.98C149.543 31.9324 149.44 31.8626 149.353 31.7747C149.266 31.6867 149.196 31.5824 149.149 31.4675C149.102 31.3527 149.078 31.2296 149.078 31.1054C149.078 30.9811 149.103 30.8581 149.15 30.7434C149.197 30.6287 149.267 30.5244 149.354 30.4366C149.441 30.3489 149.545 30.2793 149.659 30.2318C149.773 30.1844 149.895 30.16 150.019 30.1602L155.052 30.1649C155.301 30.1655 155.539 30.2656 155.715 30.4432C155.891 30.6207 155.989 30.8612 155.989 31.1119C155.989 31.3625 155.89 31.6029 155.714 31.7801C155.538 31.9573 155.299 32.0569 155.05 32.0571V32.0571Z" fill="white"/>
</g>
<path d="M263.374 142.695C261.659 144.779 259.718 146.665 257.587 148.317C252.324 152.454 245.822 154.685 239.129 154.65C236.932 154.648 234.656 154.416 232.454 154.192C229.112 153.851 225.656 153.499 222.482 153.964C219.324 154.426 216.461 156.121 215.008 158.381C214.475 159.199 214.127 160.125 213.989 161.095C213.851 162.064 213.927 163.052 214.21 163.99L213.633 164.155C213.325 163.134 213.243 162.059 213.393 161.004C213.543 159.95 213.922 158.942 214.503 158.053C216.069 155.614 219.019 153.861 222.394 153.366C225.641 152.891 229.134 153.247 232.513 153.591C234.699 153.814 236.961 154.045 239.128 154.047C251.767 154.056 262.596 146.321 268.84 132.825L269.385 133.081C267.802 136.534 265.782 139.765 263.374 142.695Z" fill="#2F2E41"/>
<path d="M0.557361 205H320.443C320.591 205 320.732 204.947 320.837 204.853C320.941 204.759 321 204.632 321 204.5C321 204.368 320.941 204.241 320.837 204.147C320.732 204.053 320.591 204 320.443 204H0.557361C0.40939 204 0.267636 204.053 0.163155 204.147C0.0586749 204.241 0 204.368 0 204.5C0 204.632 0.0586749 204.759 0.163155 204.853C0.267636 204.947 0.40939 205 0.557361 205Z" fill="#F0F0F0"/>
<defs>
<clipPath id="clip0_2679_17732">
<rect width="229.125" height="205" fill="white"/>
</clipPath>
</defs>
</svg>
