<svg width="322" height="206" viewBox="0 0 322 206" fill="none" xmlns="http://www.w3.org/2000/svg">
<path d="M274.772 147.626C276.065 149.145 277.856 150.155 279.826 150.476C281.795 150.798 283.815 150.409 285.524 149.379C285.869 149.17 285.56 148.624 285.214 148.834C283.624 149.795 281.743 150.157 279.909 149.855C278.076 149.552 276.411 148.604 275.216 147.182C274.955 146.874 274.513 147.319 274.772 147.626Z" fill="white"/>
<path d="M287.39 134.408C286.767 133.925 286.274 133.294 285.955 132.573C285.637 131.852 285.502 131.063 285.564 130.278C285.597 129.875 284.969 129.878 284.936 130.278C284.872 131.146 285.022 132.017 285.372 132.814C285.722 133.612 286.263 134.311 286.946 134.852C287.006 134.908 287.086 134.939 287.168 134.939C287.25 134.939 287.33 134.908 287.39 134.852C287.448 134.793 287.481 134.713 287.481 134.63C287.481 134.547 287.448 134.467 287.39 134.408H287.39Z" fill="white"/>
<path d="M297.786 158.214C308.072 151.363 315.459 139.19 313.758 126.999C304.542 136.757 292.15 142.96 278.775 144.511C273.615 145.091 267.814 145.201 264.192 148.9C261.938 151.201 261.011 154.535 261.002 157.746C260.994 160.958 261.81 164.109 262.622 167.218L262.442 167.999C274.81 167.388 287.499 165.065 297.786 158.214Z" fill="#F0F0F0"/>
<path d="M313.458 127.182C309.723 136.617 303.099 144.64 294.525 150.112C292.7 151.322 290.695 152.239 288.584 152.828C286.508 153.335 284.335 153.279 282.288 152.667C280.368 152.134 278.467 151.368 276.45 151.309C275.418 151.294 274.394 151.497 273.445 151.904C272.497 152.311 271.646 152.913 270.947 153.671C269.158 155.513 268.14 157.887 267.226 160.242C266.21 162.857 265.197 165.589 263.086 167.543C262.831 167.78 263.214 168.161 263.47 167.925C267.143 164.525 267.483 159.141 270.354 155.215C271.693 153.382 273.595 151.941 275.942 151.851C277.995 151.773 279.956 152.561 281.895 153.117C283.883 153.744 285.995 153.876 288.045 153.503C290.18 153.023 292.217 152.185 294.069 151.024C298.281 148.478 302.065 145.288 305.282 141.571C308.977 137.349 311.92 132.529 313.983 127.319C314.11 126.997 313.585 126.862 313.458 127.182L313.458 127.182Z" fill="white"/>
<path d="M283.539 152.74C283.79 149.203 285.353 145.89 287.915 143.464C288.169 143.224 287.786 142.839 287.532 143.079C284.871 145.608 283.252 149.058 282.999 152.741C282.975 153.092 283.515 153.09 283.539 152.74L283.539 152.74Z" fill="white"/>
<path d="M278.688 105.003C278.664 105.222 278.64 105.441 278.611 105.662C278.272 108.604 277.695 111.514 276.885 114.362C276.826 114.584 276.763 114.807 276.698 115.026C274.675 121.868 271.401 128.273 267.045 133.918C265.309 136.162 263.405 138.271 261.35 140.226C258.512 142.926 255.221 145.627 253.489 149.009C253.305 149.36 253.142 149.722 253.002 150.093L262.089 168.17C262.13 168.201 262.168 168.234 262.209 168.265L262.539 169.003C262.652 168.91 262.767 168.811 262.88 168.717C262.946 168.663 263.01 168.605 263.075 168.552C263.119 168.514 263.162 168.477 263.203 168.446C263.217 168.433 263.232 168.421 263.242 168.411C263.283 168.38 263.318 168.346 263.355 168.317C264 167.764 264.643 167.205 265.283 166.641C265.287 166.639 265.287 166.639 265.289 166.632C270.155 162.32 274.704 157.562 278.387 152.264C278.498 152.104 278.613 151.943 278.72 151.775C280.367 149.378 281.816 146.849 283.052 144.215C283.724 142.771 284.323 141.293 284.846 139.788C286.191 135.896 286.916 131.817 286.995 127.699C287.152 119.491 284.688 111.324 279.118 105.448C278.975 105.297 278.834 105.151 278.688 105.003Z" fill="#F0F0F0"/>
<path d="M277.737 105.377C280.417 115.134 279.985 125.496 276.5 134.99C275.786 137.048 274.755 138.979 273.446 140.712C272.116 142.359 270.373 143.616 268.399 144.353C266.572 145.078 264.621 145.605 263 146.765C262.179 147.372 261.495 148.146 260.991 149.038C260.488 149.931 260.177 150.92 260.079 151.942C259.769 154.482 260.381 156.984 261.065 159.408C261.823 162.101 262.653 164.885 262.157 167.707C262.096 168.049 262.625 168.123 262.685 167.782C263.549 162.872 260.611 158.377 260.531 153.528C260.494 151.266 261.131 148.978 262.923 147.501C264.49 146.21 266.503 145.664 268.359 144.947C270.295 144.257 272.034 143.098 273.424 141.572C274.817 139.912 275.92 138.024 276.686 135.99C278.482 131.439 279.558 126.631 279.874 121.742C280.266 116.165 279.711 110.561 278.231 105.172C278.139 104.839 277.646 105.046 277.737 105.377L277.737 105.377Z" fill="white"/>
<path d="M278.199 131.822C279.77 132.203 281.414 131.965 282.838 131.152C284.263 130.338 285.374 129.001 285.974 127.38C286.095 127.052 285.63 126.833 285.51 127.162C284.953 128.673 283.918 129.918 282.59 130.673C281.262 131.427 279.73 131.642 278.269 131.277C277.952 131.199 277.884 131.743 278.199 131.822Z" fill="white"/>
<path d="M269.952 144.553C267.927 141.524 267.155 137.866 267.791 134.311C267.854 133.958 267.286 133.882 267.223 134.234C266.568 137.935 267.379 141.74 269.494 144.888C269.696 145.188 270.153 144.852 269.952 144.553Z" fill="white"/>
<path d="M279.772 116.377C279.11 116.365 278.462 116.155 277.884 115.766C277.306 115.376 276.818 114.819 276.462 114.145C276.281 113.798 275.862 114.184 276.042 114.528C276.438 115.271 276.978 115.885 277.615 116.317C278.253 116.749 278.968 116.986 279.699 117.007C279.767 117.016 279.836 116.993 279.891 116.942C279.947 116.892 279.984 116.818 279.996 116.736C280.005 116.652 279.987 116.568 279.945 116.501C279.903 116.433 279.841 116.389 279.772 116.377H279.772Z" fill="white"/>
<path d="M251.139 1.00392H242.269C242.677 2.00189 242.832 3.08466 242.722 4.15683C242.612 5.229 242.239 6.25767 241.637 7.15222C241.035 8.04678 240.221 8.77976 239.268 9.28659C238.315 9.79343 237.251 10.0586 236.171 10.0587H197.244C196.164 10.0586 195.101 9.79344 194.148 9.2866C193.194 8.77976 192.381 8.04678 191.778 7.15223C191.176 6.25767 190.803 5.229 190.693 4.15682C190.583 3.08465 190.739 2.00188 191.146 1.00391H182.862C179.186 1.0039 175.66 2.4614 173.06 5.05577C170.46 7.65014 169 11.1689 169 14.8379V190.171C169 191.988 169.359 193.787 170.055 195.465C170.752 197.144 171.773 198.669 173.06 199.954C174.347 201.238 175.876 202.257 177.557 202.952C179.239 203.648 181.042 204.005 182.862 204.005H251.139C252.959 204.005 254.762 203.648 256.443 202.952C258.125 202.257 259.653 201.238 260.941 199.954C262.228 198.669 263.249 197.144 263.946 195.465C264.642 193.787 265.001 191.988 265.001 190.171V14.8379C265.001 13.0212 264.642 11.2223 263.946 9.54384C263.249 7.86543 262.228 6.34038 260.941 5.05578C259.653 3.77118 258.125 2.75218 256.443 2.05696C254.762 1.36174 252.959 1.00392 251.139 1.00392Z" fill="white"/>
<path d="M206.015 29.6752C205.843 26.7644 206.832 23.904 208.768 21.7213C210.703 19.5386 213.425 18.2117 216.338 18.0318C216.561 18.0168 216.792 18.0098 217.015 18.0098C219.873 18.017 222.617 19.1347 224.665 21.1264C226.713 23.1181 227.906 25.8277 227.991 28.6823C228.076 31.5369 227.047 34.3127 225.121 36.4227C223.195 38.5327 220.523 39.8115 217.67 39.9887C217.447 40.0029 217.216 40.0099 216.993 40.0099C214.192 40.0045 211.497 38.9329 209.458 37.0131C207.418 35.0933 206.188 32.4695 206.015 29.6752ZM216.41 19.1893C213.855 19.3454 211.462 20.4888 209.737 22.3772C208.012 24.2656 207.09 26.7508 207.167 29.3066C207.243 31.8623 208.313 34.2878 210.148 36.0695C211.984 37.8512 214.441 38.8492 217 38.8521C217.202 38.8521 217.403 38.845 217.605 38.8308C220.159 38.6747 222.552 37.5314 224.277 35.643C226.003 33.7546 226.924 31.2694 226.848 28.7137C226.771 26.158 225.702 23.7324 223.867 21.9506C222.031 20.1688 219.574 19.1707 217.015 19.1676C216.813 19.1676 216.611 19.1749 216.41 19.1893ZM215.992 37.3995C215.774 37.4131 215.555 37.3707 215.357 37.2763C215.159 37.1818 214.989 37.0385 214.862 36.8599C214.735 36.6813 214.656 36.4732 214.632 36.2555C214.608 36.0377 214.64 35.8175 214.725 35.6156L216.1 31.7326C216.345 31.0349 216.777 30.9272 217.007 30.9272C217.238 30.9272 217.669 31.0349 217.914 31.7326L219.282 35.6156C219.362 35.8186 219.391 36.0379 219.367 36.2547C219.343 36.4714 219.267 36.6791 219.145 36.86C219.013 37.0333 218.842 37.1726 218.645 37.2664C218.449 37.3601 218.233 37.4056 218.015 37.399L215.992 37.3995ZM215.819 36.0043C215.791 36.0978 215.791 36.1625 215.812 36.1913C215.864 36.2295 215.928 36.2474 215.993 36.2415H218.015C218.116 36.2415 218.174 36.2195 218.195 36.1913C218.217 36.1693 218.217 36.0978 218.181 36.0043L217 32.6602L215.819 36.0043ZM220.045 35.3065L218.267 31.5885C218.015 31.0561 218.109 30.7036 218.231 30.5096C218.469 30.1284 218.973 30.0349 219.548 30.3084L223.263 32.0848C223.463 32.1732 223.639 32.3081 223.777 32.4782C223.915 32.6482 224.01 32.8487 224.055 33.0628C224.085 33.2785 224.063 33.4984 223.991 33.7037C223.918 33.9091 223.797 34.0939 223.637 34.2424L222.205 35.6737C222.078 35.8068 221.927 35.9135 221.759 35.9876C221.591 36.0616 221.409 36.1016 221.226 36.1051C220.729 36.1049 220.283 35.8101 220.045 35.3064L220.045 35.3065ZM221.096 34.8103C221.132 34.8896 221.19 34.947 221.226 34.947C221.285 34.9333 221.338 34.9005 221.377 34.8535L222.809 33.4225C222.881 33.3503 222.91 33.2928 222.903 33.2575C222.903 33.2285 222.853 33.1782 222.766 33.135L219.562 31.603L221.096 34.8103ZM211.81 35.6735L210.377 34.242C210.217 34.0946 210.094 33.9099 210.022 33.7043C209.949 33.4986 209.928 33.2782 209.96 33.0625C210.002 32.8483 210.096 32.6476 210.232 32.4773C210.369 32.307 210.545 32.1722 210.745 32.0845L214.466 30.3081C215.042 30.0276 215.546 30.1281 215.783 30.5093C215.906 30.7108 215.999 31.0559 215.747 31.5882L213.969 35.3062C213.732 35.8024 213.285 36.1046 212.789 36.1046C212.605 36.101 212.424 36.061 212.256 35.987C212.088 35.913 211.936 35.8064 211.81 35.6734L211.81 35.6735ZM211.242 33.1274C211.182 33.1497 211.134 33.1933 211.105 33.2496C211.114 33.3145 211.147 33.3734 211.198 33.4146L212.631 34.8459C212.667 34.8955 212.721 34.929 212.782 34.9394C212.818 34.9394 212.868 34.8892 212.911 34.8027L214.445 31.5949L211.242 33.1274ZM223.58 31.3365L219.692 29.9629C218.994 29.7185 218.886 29.2867 218.886 29.0568C218.886 28.8269 218.994 28.3952 219.692 28.1504L223.58 26.7768C223.743 26.7152 223.916 26.6835 224.09 26.6833C224.832 26.6833 225.372 27.2515 225.372 28.0569V30.078C225.38 30.4298 225.254 30.7716 225.019 31.0343C224.9 31.1605 224.756 31.2607 224.596 31.3288C224.436 31.397 224.264 31.4315 224.091 31.4303C223.916 31.4266 223.744 31.3949 223.58 31.3365H223.58ZM223.968 27.8768L220.621 29.0564L223.968 30.2359C224.008 30.2495 224.049 30.2569 224.091 30.2579C224.141 30.2579 224.155 30.2434 224.163 30.2359C224.197 30.1851 224.212 30.124 224.206 30.0631V28.0498C224.206 27.8556 224.127 27.8556 224.091 27.8556C224.049 27.8562 224.008 27.8634 223.968 27.8768ZM208.643 30.0564V28.0282C208.643 27.2443 209.182 26.6762 209.924 26.6762C210.098 26.6799 210.271 26.7114 210.435 26.7697L214.322 28.1433C215.021 28.3877 215.128 28.8194 215.128 29.0493C215.128 29.2792 215.021 29.711 214.322 29.9557L210.428 31.3148C210.265 31.3765 210.092 31.4081 209.917 31.4083C209.183 31.4079 208.643 30.8403 208.643 30.0564ZM209.802 28.0427V30.0634C209.802 30.2579 209.881 30.2579 209.917 30.2579C209.959 30.2544 210 30.2446 210.039 30.2289L213.386 29.0493L210.039 27.8698C210 27.8565 209.959 27.8493 209.917 27.8486C209.881 27.8486 209.802 27.8486 209.802 28.0427ZM218.224 27.5897C218.101 27.3882 218.008 27.0428 218.26 26.5179L220.038 22.7999C220.275 22.3036 220.714 22.0015 221.218 22.0015C221.402 22.0051 221.583 22.0451 221.751 22.1191C221.919 22.1932 222.071 22.2998 222.197 22.4329L223.63 23.8642C223.791 24.0117 223.913 24.1963 223.986 24.402C224.058 24.6077 224.08 24.8281 224.047 25.0438C224.005 25.2579 223.912 25.4587 223.775 25.629C223.638 25.7993 223.463 25.9341 223.263 26.0218L219.541 27.7982C219.35 27.8969 219.138 27.951 218.922 27.9565C218.784 27.9601 218.648 27.9283 218.525 27.8641C218.403 27.7998 218.299 27.7053 218.224 27.5896L218.224 27.5897ZM221.096 23.296L219.563 26.4962L222.759 24.9717C222.818 24.9493 222.867 24.9057 222.896 24.8495C222.903 24.8134 222.881 24.756 222.809 24.6845L221.377 23.2527C221.34 23.2032 221.286 23.1697 221.226 23.1592C221.19 23.1592 221.132 23.2095 221.096 23.296ZM214.466 27.7908L210.745 26.0145C210.544 25.927 210.367 25.7924 210.229 25.6221C210.091 25.4518 209.996 25.2508 209.953 25.0362C209.924 24.8206 209.947 24.6013 210.019 24.3963C210.092 24.1913 210.212 24.0064 210.37 23.857L211.81 22.4186C211.936 22.2855 212.088 22.1787 212.256 22.1046C212.424 22.0305 212.605 21.9905 212.789 21.9868C213.286 21.9868 213.732 22.2819 213.97 22.7852L215.747 26.5033C216 27.0353 215.906 27.3877 215.784 27.5818C215.708 27.697 215.604 27.791 215.482 27.8552C215.36 27.9194 215.223 27.9516 215.085 27.9488C214.87 27.9426 214.658 27.8886 214.466 27.7908ZM212.631 23.2458L211.198 24.6767C211.148 24.7189 211.115 24.7774 211.105 24.8417C211.105 24.8704 211.155 24.921 211.241 24.9639L214.445 26.4887L212.912 23.2877C212.876 23.2087 212.818 23.1513 212.782 23.1513C212.723 23.1652 212.669 23.1984 212.631 23.2458ZM216.1 26.367L214.732 22.4831C214.653 22.2801 214.624 22.0609 214.647 21.8442C214.671 21.6275 214.747 21.4198 214.869 21.2391C215.001 21.0657 215.172 20.9264 215.369 20.8326C215.566 20.7388 215.782 20.6934 215.999 20.7001H218.022C218.24 20.6918 218.457 20.7365 218.654 20.8304C218.851 20.9243 219.022 21.0645 219.152 21.2391C219.274 21.4198 219.351 21.6274 219.374 21.8442C219.398 22.0609 219.369 22.2802 219.289 22.4831L217.914 26.367C217.67 27.0644 217.237 27.1724 217.007 27.1724C216.777 27.1724 216.345 27.0644 216.1 26.367ZM215.812 21.9079C215.793 21.9697 215.798 22.0368 215.827 22.0949L217.007 25.4389L218.188 22.0949C218.217 22.0014 218.217 21.9366 218.195 21.9079C218.143 21.8696 218.079 21.8518 218.015 21.8576H215.992C215.891 21.8575 215.834 21.8792 215.812 21.9079Z" fill="url(#paint0_linear_2679_17660)"/>
<path d="M251.309 205.004H182.688C178.793 204.999 175.06 203.457 172.306 200.716C169.552 197.975 168.002 194.258 167.998 190.382V14.6236C168.002 10.7471 169.552 7.03056 172.306 4.28943C175.059 1.5483 178.793 0.00638233 182.688 0.00195312H192.141L191.716 1.04095C191.353 1.92683 191.214 2.88797 191.312 3.83972C191.41 4.79146 191.742 5.7046 192.278 6.49868C192.814 7.29276 193.538 7.9434 194.387 8.3933C195.235 8.8432 196.181 9.07855 197.142 9.0786H236.266C237.227 9.07848 238.174 8.84309 239.022 8.39318C239.87 7.94326 240.594 7.29262 241.13 6.49856C241.667 5.70451 241.998 4.7914 242.096 3.83968C242.194 2.88796 242.056 1.92684 241.693 1.04095L241.267 0.00195312H251.309C255.204 0.00635046 258.937 1.54825 261.691 4.2894C264.445 7.03054 265.994 10.7471 265.999 14.6236V190.382C265.994 194.259 264.445 197.975 261.691 200.716C258.937 203.457 255.204 204.999 251.309 205.004ZM182.688 1.51028C179.195 1.51425 175.846 2.8971 173.377 5.35547C170.907 7.81383 169.517 11.147 169.513 14.6236V190.382C169.517 193.858 170.907 197.192 173.377 199.65C175.846 202.108 179.195 203.491 182.688 203.495H251.309C254.802 203.491 258.15 202.108 260.62 199.65C263.09 197.192 264.479 193.859 264.483 190.382V14.6236C264.479 11.147 263.09 7.81383 260.62 5.35545C258.15 2.89708 254.802 1.51424 251.309 1.5103H243.434C243.698 2.59062 243.712 3.71645 243.475 4.80287C243.238 5.88928 242.756 6.90792 242.066 7.78195C241.375 8.65598 240.495 9.36259 239.49 9.84849C238.485 10.3344 237.383 10.5869 236.266 10.5869H197.142C196.026 10.5865 194.924 10.3337 193.919 9.84772C192.915 9.3617 192.034 8.6551 191.344 7.78116C190.654 6.90723 190.172 5.88876 189.935 4.80251C189.697 3.71627 189.711 2.59059 189.974 1.5103L182.688 1.51028Z" fill="#E4E4E4"/>
<path d="M308.001 193.01H187V165.01H308.001V193.01Z" fill="white"/>
<path d="M204.187 174.008C203.872 174.008 203.57 174.113 203.348 174.301C203.125 174.488 203 174.743 203 175.008C203 175.273 203.125 175.527 203.348 175.715C203.57 175.902 203.872 176.008 204.187 176.008H290.816C291.131 176.007 291.432 175.902 291.654 175.714C291.876 175.527 292.001 175.273 292.001 175.008C292.001 174.743 291.876 174.489 291.654 174.301C291.432 174.114 291.131 174.008 290.816 174.008H204.187Z" fill="#E6E6E6"/>
<path d="M204.186 181.01C203.872 181.009 203.571 181.166 203.348 181.447C203.126 181.728 203.001 182.109 203 182.507C202.999 182.904 203.123 183.286 203.345 183.568C203.566 183.85 203.867 184.009 204.181 184.01H258.815C258.97 184.01 259.124 183.972 259.268 183.896C259.412 183.821 259.543 183.711 259.653 183.571C259.763 183.432 259.851 183.267 259.91 183.084C259.97 182.902 260 182.707 260 182.51C260 182.313 259.97 182.117 259.91 181.935C259.851 181.753 259.763 181.587 259.653 181.448C259.543 181.309 259.412 181.198 259.268 181.123C259.124 181.048 258.97 181.009 258.815 181.01H204.186Z" fill="#E6E6E6"/>
<path d="M308.001 193.01H187V165.01H308.001V193.01ZM188.989 191.01H306.012V167.01H188.989V191.01Z" fill="#E5E5E5"/>
<path d="M253.999 50.0059H179.998V106.006H253.999V50.0059Z" fill="white"/>
<path d="M255.003 106.996H179.002V48.9951H255.003V106.996ZM180.942 105.051H253.063V50.9393H180.942V105.051Z" fill="#E4E4E4"/>
<path d="M253.001 51.9971H181L253.001 104.997V51.9971Z" fill="#F0F0F0"/>
<path d="M293.998 203.998C291.823 203.998 289.696 203.382 287.887 202.229C286.078 201.075 284.668 199.435 283.835 197.516C283.003 195.598 282.785 193.486 283.209 191.45C283.634 189.413 284.682 187.542 286.22 186.073C287.758 184.605 289.718 183.605 291.852 183.2C293.986 182.795 296.198 183.003 298.208 183.797C300.218 184.592 301.936 185.938 303.144 187.665C304.353 189.391 304.998 191.421 304.998 193.498C304.998 194.877 304.714 196.242 304.161 197.516C303.608 198.79 302.798 199.948 301.776 200.923C300.755 201.898 299.542 202.671 298.208 203.199C296.873 203.727 295.443 203.998 293.998 203.998Z" fill="#3A69A6"/>
<path d="M299.422 192.333H295.528V188.442C295.528 188.098 295.391 187.768 295.148 187.524C294.904 187.281 294.574 187.145 294.23 187.145C293.886 187.145 293.555 187.281 293.312 187.524C293.069 187.768 292.932 188.098 292.932 188.442V192.333H289.038C288.694 192.333 288.364 192.47 288.122 192.713C287.879 192.957 287.742 193.286 287.742 193.63C287.742 193.973 287.879 194.303 288.122 194.546C288.364 194.789 288.694 194.926 289.038 194.927H292.932V198.818C292.932 199.162 293.069 199.492 293.312 199.735C293.555 199.978 293.886 200.115 294.23 200.115C294.574 200.115 294.904 199.978 295.148 199.735C295.391 199.492 295.528 199.162 295.528 198.818V194.927H299.422C299.593 194.927 299.762 194.894 299.919 194.829C300.077 194.764 300.221 194.668 300.341 194.548C300.462 194.427 300.558 194.284 300.623 194.127C300.689 193.969 300.722 193.8 300.722 193.63C300.722 193.459 300.689 193.29 300.623 193.133C300.558 192.975 300.462 192.832 300.341 192.712C300.221 192.591 300.077 192.496 299.919 192.431C299.762 192.366 299.593 192.332 299.422 192.333Z" fill="white"/>
<path d="M321.34 204.999H0.659509C0.484423 204.999 0.316677 204.946 0.193052 204.852C0.0694265 204.758 0 204.631 0 204.499C0 204.367 0.0694265 204.24 0.193052 204.146C0.316677 204.052 0.484423 203.999 0.659509 203.999H321.34C321.516 203.999 321.683 204.052 321.807 204.146C321.931 204.24 322 204.367 322 204.499C322 204.631 321.931 204.758 321.807 204.852C321.683 204.946 321.516 204.999 321.34 204.999Z" fill="#F0F0F0"/>
<path d="M59.7951 107.285C59.7951 107.285 54.6348 111.16 56.3549 136.998C58.075 162.836 58.075 167.142 58.075 167.142C58.075 167.142 55.4949 178.769 59.7951 183.075C59.7951 183.075 63.6654 185.228 62.3753 186.52L68.8257 187.381C68.8257 187.381 67.1056 186.951 69.6857 184.367C72.2659 181.783 69.6857 176.616 69.6857 176.616L70.9758 152.931L75.7061 130.108L81.2964 160.252C81.2964 160.252 79.1463 180.491 82.1565 183.506C85.1666 186.52 84.3066 188.673 84.3066 188.673H90.757C90.757 188.673 88.6068 186.52 92.4771 184.798C96.3473 183.075 94.6272 170.587 94.6272 170.587C94.6272 170.587 97.6374 122.787 96.3473 116.759C95.0572 110.73 90.757 103.84 90.757 103.84L59.7951 107.285Z" fill="#36393D"/>
<path d="M63.8798 185.01L60.0096 190.177L56.1394 196.206C56.1394 196.206 48.8289 205.68 57.8595 204.819C66.89 203.957 65.1699 200.943 65.1699 200.943C65.1699 200.943 69.9002 201.374 69.9002 197.498C69.9002 193.622 68.2834 186.429 68.2834 186.429L63.8798 185.01Z" fill="#36393D"/>
<path d="M88.3895 185.01L92.2597 190.177L96.1299 196.206C96.1299 196.206 103.44 205.68 94.4098 204.819C85.3793 203.957 87.0994 200.943 87.0994 200.943C87.0994 200.943 82.3691 201.374 82.3691 197.498C82.3691 193.622 83.986 186.429 83.986 186.429L88.3895 185.01Z" fill="#36393D"/>
<path d="M77.6403 48.5023C82.8652 48.5023 87.1008 44.2607 87.1008 39.0285C87.1008 33.7962 82.8652 29.5547 77.6403 29.5547C72.4153 29.5547 68.1797 33.7962 68.1797 39.0285C68.1797 44.2607 72.4153 48.5023 77.6403 48.5023Z" fill="#A0616A"/>
<path d="M71.4046 44.8447L70.9746 54.3185L76.995 63.7923L84.7354 53.0266L83.0153 45.2754L71.4046 44.8447Z" fill="#A0616A"/>
<path d="M94.1951 85.3224C94.1 91.6936 93.3798 98.0399 92.0449 104.27L92.905 105.992C92.905 105.992 86.2568 107.048 78.7142 107.853C78.1465 107.913 77.5703 107.973 76.9941 108.034C69.7782 108.748 62.1496 109.153 58.933 108.146L59.793 105.992C59.793 105.992 58.0729 101.686 60.6531 92.2124C60.6531 92.2124 59.793 87.0449 60.6531 83.5999C61.2449 81.2295 55.9031 68.7998 53.7691 63.9805C53.5337 63.4485 53.4982 62.8492 53.669 62.293C53.8399 61.7368 54.2056 61.2611 54.6989 60.9535L71.1371 50.6914C72.812 52.0473 74.8496 52.8773 76.9941 53.0771C77.5672 53.1183 78.1428 53.1082 78.7142 53.047C80.7349 52.8004 82.6439 51.9834 84.2185 50.6914L91.6149 54.7479L99.8521 60.6399C100.085 60.8065 100.262 61.0405 100.359 61.3104C100.455 61.5803 100.467 61.8733 100.393 62.1503L94.1951 85.3224Z" fill="#3A69A6"/>
<path d="M78.7162 53.0449V108.144H76.9961V53.0751C77.5692 53.1162 78.1449 53.1062 78.7162 53.0449Z" fill="#36393D"/>
<path opacity="0.2" d="M81.9414 65.2949V70.2471C81.9414 71.5605 82.4624 72.8202 83.3899 73.7489C84.3173 74.6776 85.5751 75.1993 86.8867 75.1993C88.1983 75.1993 89.4561 74.6776 90.3835 73.7489C91.311 72.8202 91.832 71.5605 91.832 70.2471V65.2949H81.9414Z" fill="#202021"/>
<path d="M78.7798 34.6921C78.7798 34.6921 77.27 34.5115 77.3301 34.0076C77.3301 34.0076 72.0852 33.2172 69.6561 35.3085C67.2271 37.3998 68.151 33.9322 68.151 33.9322C68.151 33.9322 62.9156 30.7503 67.7455 28.7721L68.1887 29.3363C68.1887 29.3363 69.3755 27.9447 72.9585 27.862L72.5154 27.2979C72.5154 27.2979 72.5754 26.7939 75.0918 27.0948C77.6081 27.3958 84.4511 25.6583 84.2933 31.2622C84.2933 31.2622 88.4997 30.2318 87.8987 35.2715C87.2977 40.3112 86.4939 42.7709 86.4939 42.7709C86.4939 42.7709 85.7879 40.1307 83.5945 41.4018C81.4012 42.673 78.7798 34.6921 78.7798 34.6921Z" fill="#36393D"/>
<path d="M56.1383 116.972V119.555C56.1383 119.555 57.4284 128.168 52.6982 127.737C47.9679 127.307 50.548 118.694 50.548 118.694L50.9781 116.541L56.1383 116.972Z" fill="#A0616A"/>
<path d="M55.0444 61.2662C54.569 61.218 54.09 61.3121 53.6681 61.5368L52.9922 61.8969C52.5075 62.1542 52.1253 62.5698 51.909 63.0746C51.1998 64.731 49.6884 68.7634 49.6884 73.048C49.6884 78.6462 48.3983 93.7181 48.3983 93.7181V113.958C48.3983 113.958 46.2482 117.833 49.2583 117.833C52.2685 117.833 58.2889 118.694 57.8588 116.972C57.4288 115.249 56.5688 112.666 56.5688 112.666L57.8588 92.8569L62.1591 77.3543L57.0767 62.8687C56.9248 62.4359 56.653 62.0554 56.2931 61.7716C55.9332 61.4878 55.5001 61.3125 55.0444 61.2662Z" fill="#3A69A6"/>
<path d="M120.902 140.012H93.8109C93.6968 140.012 93.5875 139.966 93.5068 139.886C93.4262 139.805 93.3809 139.695 93.3809 139.581C93.3809 139.467 93.4262 139.357 93.5068 139.277C93.5875 139.196 93.6968 139.15 93.8109 139.15H120.902C121.017 139.15 121.126 139.196 121.207 139.277C121.287 139.357 121.333 139.467 121.333 139.581C121.333 139.695 121.287 139.805 121.207 139.886C121.126 139.966 121.017 140.012 120.902 140.012Z" fill="white"/>
<path d="M143.737 155.07H36V122.53H143.737V155.07ZM37.9239 153.148H141.813V124.453H37.9239L37.9239 153.148Z" fill="#E4E4E4"/>
<path d="M142.443 124.102H37.25V154.157H142.443V124.102Z" fill="white"/>
<path d="M103.654 119.908V122.492C103.654 122.492 104.944 131.104 100.214 130.674C95.4835 130.243 98.0637 121.631 98.0637 121.631L98.4937 119.478L103.654 119.908Z" fill="#A0616A"/>
<path d="M122.221 134.018H57.5164C57.1526 134.018 56.8036 133.874 56.5463 133.616C56.2891 133.359 56.1445 133.011 56.1445 132.647C56.1445 132.284 56.2891 131.935 56.5463 131.678C56.8036 131.421 57.1526 131.276 57.5164 131.276H122.221C122.585 131.276 122.934 131.421 123.191 131.678C123.448 131.935 123.593 132.284 123.593 132.647C123.593 133.011 123.448 133.359 123.191 133.616C122.934 133.874 122.585 134.018 122.221 134.018Z" fill="#89CC29"/>
<path d="M122.22 140.169H57.5159C57.1525 140.168 56.8042 140.023 56.5474 139.766C56.2907 139.509 56.1465 139.161 56.1465 138.798C56.1465 138.435 56.2907 138.086 56.5474 137.829C56.8042 137.572 57.1525 137.427 57.5159 137.427H122.22C122.584 137.427 122.932 137.572 123.189 137.829C123.445 138.086 123.59 138.435 123.59 138.798C123.59 139.161 123.445 139.509 123.189 139.766C122.932 140.023 122.584 140.168 122.22 140.169Z" fill="#89CC29"/>
<path d="M96.0304 146.319H57.5164C57.1526 146.319 56.8036 146.174 56.5463 145.917C56.2891 145.66 56.1445 145.312 56.1445 144.948C56.1445 144.584 56.2891 144.236 56.5463 143.979C56.8036 143.722 57.1526 143.577 57.5164 143.577H96.0304C96.3943 143.577 96.7432 143.722 97.0005 143.979C97.2577 144.236 97.4023 144.584 97.4023 144.948C97.4023 145.312 97.2577 145.66 97.0005 145.917C96.7432 146.174 96.3943 146.319 96.0304 146.319Z" fill="#89CC29"/>
<path d="M106.948 97.4177L105.073 114.018C105.073 114.018 106.793 119.617 105.073 119.617C103.353 119.617 97.7628 120.047 98.1928 118.325C98.6229 116.602 99.0529 114.018 99.0529 114.018L97.7628 94.2095L93.8926 82.152L97.5993 61.9429C97.648 61.677 97.7722 61.4308 97.9569 61.2336C98.1416 61.0365 98.3791 60.8968 98.6409 60.8311L99.7035 60.5646C99.9119 60.5124 100.129 60.5086 100.34 60.5537C100.55 60.5987 100.747 60.6913 100.915 60.8244C101.104 60.9731 101.252 61.1681 101.344 61.3906C101.999 62.9783 104.747 69.7553 105.503 73.5395C105.955 75.7959 106.522 80.5414 106.961 84.542C107.361 88.1721 107.653 91.1952 107.653 91.1952L106.948 97.4177Z" fill="#3A69A6"/>
<defs>
<linearGradient id="paint0_linear_2679_17660" x1="216.996" y1="15.9197" x2="216.996" y2="40.0099" gradientUnits="userSpaceOnUse">
<stop stop-color="#70A229" stop-opacity="0.8"/>
<stop offset="0.0003" stop-color="#70A229" stop-opacity="0.89"/>
<stop offset="0.536458" stop-color="#A2D45A" stop-opacity="0.8"/>
<stop offset="1" stop-color="#A2D45A" stop-opacity="0.9"/>
</linearGradient>
</defs>
</svg>
