<svg width="120" height="120" viewBox="0 0 120 120" fill="none" xmlns="http://www.w3.org/2000/svg">
<path d="M83.8671 26.2186H2.85564C2.09855 26.2175 1.37274 25.8386 0.837396 25.1652C0.302057 24.4917 0.000906146 23.5787 0 22.6262V11.6598C0.000906146 10.7074 0.302057 9.79429 0.837396 9.12083C1.37274 8.44738 2.09855 8.06852 2.85564 8.06738H83.8671C84.6241 8.06852 85.35 8.44738 85.8853 9.12083C86.4206 9.79429 86.7218 10.7074 86.7227 11.6598V22.6262C86.7218 23.5787 86.4206 24.4917 85.8853 25.1652C85.35 25.8386 84.6241 26.2175 83.8671 26.2186ZM2.85564 8.44558C2.17824 8.44655 1.52882 8.78549 1.04983 9.38806C0.570835 9.99063 0.301399 10.8076 0.300629 11.6598V22.6262C0.301263 23.4785 0.570638 24.2957 1.04964 24.8984C1.52865 25.5011 2.17815 25.8401 2.85564 25.8411H83.8671C84.5445 25.8402 85.1939 25.5013 85.673 24.8987C86.152 24.2961 86.4215 23.4791 86.4222 22.6269V11.6598C86.4215 10.8076 86.152 9.99063 85.673 9.38806C85.1941 8.78549 84.5446 8.44655 83.8672 8.44558H2.85564Z" fill="#CCCCCC"/>
<path d="M18 23.0195C16.8133 23.0195 15.6533 22.6687 14.6666 22.0116C13.6799 21.3544 12.9109 20.4204 12.4567 19.3276C12.0026 18.2349 11.8838 17.0324 12.1153 15.8723C12.3468 14.7122 12.9182 13.6466 13.7574 12.8102C14.5965 11.9738 15.6656 11.4043 16.8295 11.1735C17.9933 10.9428 19.1997 11.0612 20.2961 11.5138C21.3925 11.9665 22.3295 12.733 22.9888 13.7165C23.6481 14.7 24 15.8562 24 17.039C24 18.6251 23.3679 20.1463 22.2426 21.2678C21.1174 22.3894 19.5913 23.0195 18 23.0195Z" fill="#E6E6E6"/>
<path d="M73.9918 23.0185H29.5082C29.2408 23.0185 28.9844 22.861 28.7953 22.5806C28.6062 22.3002 28.5 21.92 28.5 21.5234C28.5 21.1269 28.6062 20.7466 28.7953 20.4662C28.9844 20.1858 29.2408 20.0283 29.5082 20.0283H73.9918C74.2592 20.0283 74.5157 20.1858 74.7047 20.4662C74.8938 20.7466 75 21.1269 75 21.5234C75 21.92 74.8938 22.3002 74.7047 22.5806C74.5157 22.861 74.2592 23.0185 73.9918 23.0185Z" fill="#E6E6E6"/>
<path d="M73.5354 15.5429H29.9646C29.5762 15.5429 29.2036 15.3854 28.929 15.105C28.6543 14.8247 28.5 14.4444 28.5 14.0478C28.5 13.6513 28.6543 13.271 28.929 12.9906C29.2036 12.7103 29.5762 12.5527 29.9646 12.5527H73.5354C73.9238 12.5527 74.2964 12.7103 74.571 12.9906C74.8457 13.271 75 13.6513 75 14.0478C75 14.4444 74.8457 14.8247 74.571 15.105C74.2964 15.3854 73.9238 15.5429 73.5354 15.5429Z" fill="#E6E6E6"/>
<path d="M83.8671 52.4374H2.85564C2.09855 52.4363 1.37274 52.0574 0.837396 51.3839C0.302057 50.7105 0.000906146 49.7974 0 48.845V37.8785C0.000906146 36.9261 0.302057 36.013 0.837396 35.3396C1.37274 34.6661 2.09855 34.2873 2.85564 34.2861H83.8671C84.6241 34.2873 85.35 34.6661 85.8853 35.3396C86.4206 36.013 86.7218 36.9261 86.7227 37.8785V48.845C86.7218 49.7974 86.4206 50.7105 85.8853 51.3839C85.35 52.0574 84.6241 52.4363 83.8671 52.4374ZM2.85564 34.6643C2.17824 34.6653 1.52882 35.0042 1.04983 35.6068C0.570835 36.2094 0.301399 37.0264 0.300629 37.8785V48.845C0.301263 49.6973 0.570638 50.5144 1.04964 51.1171C1.52865 51.7198 2.17815 52.0589 2.85564 52.0598H83.8671C84.5445 52.0589 85.1939 51.72 85.673 51.1174C86.152 50.5149 86.4215 49.6978 86.4222 48.8456V37.8785C86.4215 37.0264 86.152 36.2094 85.673 35.6068C85.1941 35.0042 84.5446 34.6653 83.8672 34.6643H2.85564Z" fill="#CCCCCC"/>
<path d="M18 49.2382C16.8133 49.2382 15.6533 48.8875 14.6666 48.2303C13.6799 47.5732 12.9109 46.6392 12.4567 45.5464C12.0026 44.4536 11.8838 43.2511 12.1153 42.0911C12.3468 40.931 12.9182 39.8654 13.7574 39.029C14.5965 38.1926 15.6656 37.623 16.8295 37.3923C17.9933 37.1615 19.1997 37.2799 20.2961 37.7326C21.3925 38.1852 22.3295 38.9518 22.9888 39.9352C23.6481 40.9187 24 42.075 24 43.2578C24 44.8439 23.3679 46.365 22.2426 47.4866C21.1174 48.6081 19.5913 49.2382 18 49.2382Z" fill="#E6E6E6"/>
<path d="M73.9918 49.2373H29.5082C29.2408 49.2373 28.9844 49.0798 28.7953 48.7994C28.6062 48.519 28.5 48.1387 28.5 47.7422C28.5 47.3456 28.6062 46.9654 28.7953 46.685C28.9844 46.4046 29.2408 46.2471 29.5082 46.2471H73.9918C74.2592 46.2471 74.5157 46.4046 74.7047 46.685C74.8938 46.9654 75 47.3456 75 47.7422C75 48.1387 74.8938 48.519 74.7047 48.7994C74.5157 49.0798 74.2592 49.2373 73.9918 49.2373Z" fill="#E6E6E6"/>
<path d="M73.5354 41.7617H29.9646C29.5762 41.7617 29.2036 41.6042 28.929 41.3238C28.6543 41.0434 28.5 40.6631 28.5 40.2666C28.5 39.8701 28.6543 39.4898 28.929 39.2094C29.2036 38.929 29.5762 38.7715 29.9646 38.7715H73.5354C73.9238 38.7715 74.2964 38.929 74.571 39.2094C74.8457 39.4898 75 39.8701 75 40.2666C75 40.6631 74.8457 41.0434 74.571 41.3238C74.2964 41.6042 73.9238 41.7617 73.5354 41.7617Z" fill="#E6E6E6"/>
<path d="M83.8671 78.6552H2.85564C2.09855 78.654 1.37274 78.2752 0.837396 77.6017C0.302057 76.9283 0.000906146 76.0152 0 75.0628V64.0963C0.000906146 63.1439 0.302057 62.2308 0.837396 61.5574C1.37274 60.8839 2.09855 60.505 2.85564 60.5039H83.8671C84.6241 60.505 85.35 60.8839 85.8853 61.5574C86.4206 62.2308 86.7218 63.1439 86.7227 64.0963V75.0628C86.7218 76.0152 86.4206 76.9283 85.8853 77.6017C85.35 78.2752 84.6241 78.654 83.8671 78.6552ZM2.85564 60.8821C2.17824 60.8831 1.52882 61.222 1.04983 61.8246C0.570835 62.4272 0.301399 63.2441 0.300629 64.0963V75.0628C0.301263 75.915 0.570638 76.7322 1.04964 77.3349C1.52865 77.9376 2.17815 78.2767 2.85564 78.2776H83.8671C84.5445 78.2767 85.1939 77.9378 85.673 77.3352C86.152 76.7326 86.4215 75.9156 86.4222 75.0634V64.0963C86.4215 63.2441 86.152 62.4272 85.673 61.8246C85.1941 61.222 84.5446 60.8831 83.8672 60.8821H2.85564Z" fill="#172A42"/>
<path d="M18.75 75.9413C17.415 75.9413 16.1099 75.5467 14.9999 74.8075C13.8899 74.0682 13.0247 73.0174 12.5138 71.788C12.0029 70.5586 11.8693 69.2059 12.1297 67.9008C12.3902 66.5957 13.033 65.3969 13.977 64.4559C14.921 63.515 16.1238 62.8742 17.4331 62.6146C18.7425 62.355 20.0997 62.4883 21.3331 62.9975C22.5665 63.5067 23.6207 64.3691 24.3624 65.4755C25.1041 66.5819 25.5 67.8827 25.5 69.2133C25.5 70.9977 24.7888 72.709 23.523 73.9707C22.2571 75.2325 20.5402 75.9413 18.75 75.9413Z" fill="#A2D45A"/>
<path d="M18.8492 71.456C18.6934 71.4564 18.5416 71.3992 18.417 71.2929L18.4092 71.2863L16.783 69.8727C16.7077 69.8071 16.6445 69.7253 16.597 69.6319C16.5495 69.5385 16.5187 69.4354 16.5062 69.3285C16.4938 69.2216 16.5 69.1129 16.5245 69.0087C16.5491 68.9045 16.5914 68.8069 16.6491 68.7213C16.7069 68.6357 16.7789 68.5638 16.861 68.5099C16.9432 68.4559 17.0339 68.4209 17.128 68.4067C17.2221 68.3926 17.3177 68.3997 17.4094 68.4275C17.5011 68.4554 17.587 68.5035 17.6623 68.5691L18.7156 69.4871L21.2045 65.7969C21.3211 65.6242 21.4932 65.5112 21.6831 65.4827C21.873 65.4542 22.0651 65.5125 22.2172 65.6449L22.2018 65.6695L22.2176 65.6449C22.3694 65.7776 22.4688 65.9733 22.4938 66.1891C22.5188 66.4049 22.4675 66.6231 22.3512 66.796L19.4236 71.1345C19.3558 71.2343 19.2686 71.315 19.1689 71.3704C19.0693 71.4257 18.9597 71.4543 18.8488 71.4538L18.8492 71.456Z" fill="white"/>
<path d="M73.9918 75.4551H29.5082C29.2408 75.4551 28.9844 75.2975 28.7953 75.0172C28.6062 74.7368 28.5 74.3565 28.5 73.9599C28.5 73.5634 28.6062 73.1831 28.7953 72.9027C28.9844 72.6224 29.2408 72.4648 29.5082 72.4648H73.9918C74.2592 72.4648 74.5157 72.6224 74.7047 72.9027C74.8938 73.1831 75 73.5634 75 73.9599C75 74.3565 74.8938 74.7368 74.7047 75.0172C74.5157 75.2975 74.2592 75.4551 73.9918 75.4551Z" fill="#E6E6E6"/>
<path d="M73.5354 67.9795H29.9646C29.5762 67.9795 29.2036 67.822 28.929 67.5416C28.6543 67.2612 28.5 66.8809 28.5 66.4844C28.5 66.0878 28.6543 65.7075 28.929 65.4272C29.2036 65.1468 29.5762 64.9893 29.9646 64.9893H73.5354C73.9238 64.9893 74.2964 65.1468 74.571 65.4272C74.8457 65.7075 75 66.0878 75 66.4844C75 66.8809 74.8457 67.2612 74.571 67.5416C74.2964 67.822 73.9238 67.9795 73.5354 67.9795Z" fill="#E6E6E6"/>
<path d="M116.121 120H0.448201C0.20058 120 0 119.912 0 119.804C0 119.696 0.20058 119.608 0.448201 119.608H116.121C116.368 119.608 116.569 119.696 116.569 119.804C116.569 119.912 116.368 120 116.121 120Z" fill="#172A42"/>
<path d="M105.827 118.637L104.203 118.637L103.43 112.37L105.828 112.37L105.827 118.637Z" fill="#FFB6B6"/>
<path d="M105.882 120.001L99.832 120.001V119.93C99.8321 119.352 100.08 118.798 100.522 118.389C100.963 117.981 101.562 117.751 102.187 117.751H102.187L103.292 116.976L105.354 117.751L105.882 117.751L105.882 120.001Z" fill="#202021"/>
<path d="M98.2805 118.637L96.6557 118.637L95.8828 112.37L98.2808 112.37L98.2805 118.637Z" fill="#FFB6B6"/>
<path d="M98.8237 120.001L92.7734 120.001V119.93C92.7735 119.352 93.0216 118.798 93.4632 118.389C93.9049 117.981 94.5038 117.751 95.1284 117.751H95.1285L96.2337 116.976L98.2957 117.751L98.8239 117.751L98.8237 120.001Z" fill="#202021"/>
<path d="M97.5776 84.375L108.146 84.6392C110.153 85.7294 110.183 88.0889 109.526 90.8902C109.526 90.8902 109.748 92.5553 109.304 92.9993C108.86 93.4433 108.638 93.4433 108.86 94.2204C109.082 94.9974 107.909 96.2665 108.051 96.409C108.194 96.5515 108.527 97.3285 108.527 97.3285L107.417 103.656C107.417 103.656 106.639 114.645 106.417 114.867C106.195 115.089 105.973 114.867 106.195 115.422C106.417 115.977 106.639 115.755 106.417 115.977C106.221 116.189 106.036 116.412 105.862 116.643H103.179C103.179 116.643 102.976 115.533 102.976 115.422C102.976 115.311 102.754 114.645 102.754 114.534C102.754 114.423 102.951 114.227 102.951 114.227C103.018 114.001 103.064 113.77 103.087 113.535C103.087 113.313 103.753 104.766 103.753 104.766L102.421 93.6653L99.2022 104.544C99.2022 104.544 99.2022 114.09 98.9802 114.312C98.7582 114.534 98.7582 114.423 98.8692 114.867C98.9802 115.311 99.4242 115.2 99.0912 115.533C98.7582 115.866 98.6472 115.311 98.7582 115.866L98.8692 116.421L95.5391 116.469C95.5391 116.469 95.0951 115.533 95.3171 115.2C95.5391 114.867 95.5258 114.958 95.2549 114.413C94.9841 113.868 94.8731 113.757 94.9841 113.646C95.0951 113.535 95.0951 112.945 95.0951 112.945L95.6501 102.324C95.6501 102.324 95.7611 91.1123 95.7611 90.7792C95.7695 90.6079 95.7379 90.4369 95.6689 90.2799V89.8278L96.0941 88.2261L97.5776 84.375Z" fill="#36393D"/>
<path d="M103.924 62.4011C105.738 62.4011 107.208 60.931 107.208 59.1175C107.208 57.3041 105.738 55.834 103.924 55.834C102.111 55.834 100.641 57.3041 100.641 59.1175C100.641 60.931 102.111 62.4011 103.924 62.4011Z" fill="#FFB6B6"/>
<path d="M102.282 64.5715C101.574 64.9921 101.151 65.7648 100.908 66.5511C100.459 68.0068 100.188 69.5119 100.102 71.0331L99.8456 75.5873L96.668 85.2845C99.4219 87.6148 109.774 85.8141 109.774 85.8141C109.774 85.8141 110.091 85.7082 109.774 85.3904C109.456 85.0727 109.147 85.3542 109.464 85.0364C109.782 84.7187 109.563 85.0727 109.457 84.7549C109.351 84.4371 109.457 84.649 109.563 84.5431C109.669 84.4371 108.743 83.4839 108.743 83.4839L109.59 77.9176L110.65 66.6899C109.379 65.1011 106.822 64.1645 106.822 64.1645L106.162 62.9756L102.859 63.2398L102.282 64.5715Z" fill="#E6E6E6"/>
<path d="M101.833 57.1903C101.96 57.1913 102.087 57.2079 102.21 57.2397C102.452 57.298 102.699 57.3393 102.947 57.3633C103.707 57.4348 104.421 57.759 104.976 58.284C105.53 58.8091 105.892 59.5048 106.005 60.2599C106.195 60.0936 106.63 59.7876 106.985 60.072C106.991 60.0765 106.994 60.0788 107.007 60.0729C107.243 59.9608 107.662 58.5808 107.675 57.3658C107.682 56.7209 107.58 55.8974 107.059 55.6366L107.031 55.6229L107.024 55.593C106.989 55.4479 106.6 55.2003 105.923 55.0076C104.694 54.6573 102.861 53.975 101.828 54.9792C101.75 55.3177 101.496 56.0421 101.239 56.1242C100.955 56.2151 100.71 56.2935 100.671 56.6422C100.639 57.1384 100.641 57.6363 100.678 58.1322C100.774 57.8288 100.963 57.5632 101.219 57.3728C101.4 57.2507 101.615 57.187 101.833 57.1903Z" fill="#36393D"/>
<path d="M95.7217 75.3339L101.085 71.8988L98.3839 68.3076L95.7163 71.589L87.4047 72.0988C87.186 71.8827 86.9093 71.7348 86.6081 71.6733C86.3069 71.6118 85.9944 71.6392 85.7085 71.7523C85.4227 71.8653 85.1759 72.0591 84.9983 72.31C84.8206 72.5609 84.7198 72.858 84.7082 73.1652C84.6965 73.4724 84.7745 73.7763 84.9325 74.0399C85.0906 74.3036 85.322 74.5155 85.5985 74.6499C85.8749 74.7843 86.1845 74.8354 86.4895 74.7969C86.7944 74.7584 87.0816 74.632 87.316 74.4331L95.7217 75.3339Z" fill="#FFB6B6"/>
<path d="M106.064 67.1034C106.375 68.9874 100.496 72.585 100.496 72.585C100.496 72.1428 96.9875 75.4811 96.8291 75.1144C96.379 74.0721 96.0625 71.6033 95.4335 71.2081C95.0738 70.9822 97.5999 68.8593 97.5999 68.8593C97.5999 68.8593 98.9221 67.5272 100.657 65.847C101.139 65.3629 101.735 65.0085 102.391 64.8169C103.047 64.6253 103.74 64.6026 104.407 64.7511C104.407 64.7511 105.752 65.2195 106.064 67.1034Z" fill="#E6E6E6"/>
<path d="M117.12 76.2351L113.572 70.9453L110.039 73.7223L113.376 76.3198L114.062 84.6188C113.85 84.8419 113.708 85.1217 113.653 85.4241C113.598 85.7265 113.632 86.0385 113.751 86.3219C113.87 86.6052 114.069 86.8479 114.324 87.0201C114.579 87.1924 114.878 87.2869 115.185 87.2921C115.492 87.2972 115.795 87.2128 116.055 87.0492C116.315 86.8856 116.522 86.6498 116.651 86.3705C116.779 86.0913 116.824 85.7807 116.779 85.4766C116.734 85.1725 116.601 84.8881 116.397 84.658L117.12 76.2351Z" fill="#FFB6B6"/>
<path d="M108.673 66.07C110.55 65.7189 114.271 71.5202 114.271 71.5202C113.829 71.5296 117.241 74.9669 116.878 75.133C115.845 75.6051 113.384 75.9738 113.002 76.611C112.784 76.9754 110.608 74.4948 110.608 74.4948C110.608 74.4948 109.248 73.2011 107.531 71.5018C107.037 71.0304 106.67 70.4417 106.465 69.7903C106.259 69.139 106.222 68.4462 106.356 67.7766C106.356 67.7766 106.796 66.4211 108.673 66.07Z" fill="#E6E6E6"/>
</svg>
