<svg xmlns="http://www.w3.org/2000/svg" width="39.001" height="26" viewBox="0 0 39.001 26">
    <defs>
        <style>
            .cls-1{fill:#757575}
        </style>
    </defs>
    <path id="thread" d="M-2734 24a2 2 0 0 1 2-2 2 2 0 0 1 2 2 2 2 0 0 1-2 2 2 2 0 0 1-2-2zm-18 2a2 2 0 0 1-2-2 2 2 0 0 1 2-2h11a2 2 0 0 1 2 2 2 2 0 0 1-2 2zm18-13a2 2 0 0 1 2-2 2 2 0 0 1 2 2 2 2 0 0 1-2 2 2 2 0 0 1-2-2zm-28 2a2 2 0 0 1-2-2 2 2 0 0 1 2-2h21a2 2 0 0 1 2 2 2 2 0 0 1-2 2zm28-13a2 2 0 0 1 2-2 2 2 0 0 1 2 2 2 2 0 0 1-2 2 2 2 0 0 1-2-2zm-33 2a2 2 0 0 1-2-2 2 2 0 0 1 2-2h26a2 2 0 0 1 2 2 2 2 0 0 1-2 2z" class="cls-1" transform="translate(2769)"/>
</svg>
